<svg width="19" height="17" viewBox="0 0 19 17" fill="none" xmlns="http://www.w3.org/2000/svg">
<path d="M5.79167 11.8542C5.79167 12.6167 5.48877 13.3479 4.9496 13.8871C4.41043 14.4263 3.67916 14.7292 2.91667 14.7292M13.4583 11.8542C13.4583 12.6167 13.7612 13.3479 14.3004 13.8871C14.8396 14.4263 15.5708 14.7292 16.3333 14.7292M9.625 11.8542V15.6875M1 3.22917C1 2.72084 1.20193 2.23332 1.56138 1.87388C1.92082 1.51443 2.40834 1.3125 2.91667 1.3125H16.3333C16.8417 1.3125 17.3292 1.51443 17.6886 1.87388C18.0481 2.23332 18.25 2.72084 18.25 3.22917V7.0625C18.25 7.57083 18.0481 8.05834 17.6886 8.41779C17.3292 8.77723 16.8417 8.97917 16.3333 8.97917H2.91667C2.40834 8.97917 1.92082 8.77723 1.56138 8.41779C1.20193 8.05834 1 7.57083 1 7.0625V3.22917Z" stroke="#505050" stroke-width="1.5" stroke-linecap="round" stroke-linejoin="round"/>
<path d="M4.8335 8.97933V6.10433C4.8335 5.85016 4.93446 5.60641 5.11419 5.42669C5.29391 5.24696 5.53766 5.146 5.79183 5.146H13.4585C13.7127 5.146 13.9564 5.24696 14.1361 5.42669C14.3159 5.60641 14.4168 5.85016 14.4168 6.10433V8.97933" stroke="#505050" stroke-width="1.5" stroke-linecap="round" stroke-linejoin="round"/>
</svg>
