<svg width="30" height="24" viewBox="0 0 30 24" fill="none" xmlns="http://www.w3.org/2000/svg">
<path d="M28.8625 21.6874H27.8938V5.21863C27.8938 4.9617 27.7917 4.71529 27.6101 4.53362C27.4284 4.35194 27.182 4.24988 26.925 4.24988H22.0813V1.34363C22.0813 1.0867 21.9792 0.840294 21.7976 0.658618C21.6159 0.476943 21.3695 0.374878 21.1125 0.374878H9.48755C9.23062 0.374878 8.98421 0.476943 8.80254 0.658618C8.62086 0.840294 8.5188 1.0867 8.5188 1.34363V8.12488H3.67505C3.41812 8.12488 3.17172 8.22694 2.99004 8.40862C2.80836 8.59029 2.7063 8.8367 2.7063 9.09363V21.6874H1.73755C1.48062 21.6874 1.23421 21.7894 1.05254 21.9711C0.870863 22.1528 0.768799 22.3992 0.768799 22.6561C0.768799 22.9131 0.870863 23.1595 1.05254 23.3411C1.23421 23.5228 1.48062 23.6249 1.73755 23.6249H28.8625C29.1195 23.6249 29.3659 23.5228 29.5476 23.3411C29.7292 23.1595 29.8313 22.9131 29.8313 22.6561C29.8313 22.3992 29.7292 22.1528 29.5476 21.9711C29.3659 21.7894 29.1195 21.6874 28.8625 21.6874ZM4.6438 10.0624H9.48755C9.74448 10.0624 9.99088 9.96031 10.1726 9.77864C10.3542 9.59696 10.4563 9.35056 10.4563 9.09363V2.31238H20.1438V5.21863C20.1438 5.47556 20.2459 5.72196 20.4275 5.90364C20.6092 6.08531 20.8556 6.18738 21.1125 6.18738H25.9563V21.6874H18.2063V16.8436C18.2063 16.5867 18.1042 16.3403 17.9226 16.1586C17.7409 15.9769 17.4945 15.8749 17.2375 15.8749H13.3625C13.1056 15.8749 12.8592 15.9769 12.6775 16.1586C12.4959 16.3403 12.3938 16.5867 12.3938 16.8436V21.6874H4.6438V10.0624ZM16.2688 21.6874H14.3313V17.8124H16.2688V21.6874ZM13.3625 5.21863C13.3625 4.9617 13.4646 4.71529 13.6463 4.53362C13.828 4.35194 14.0744 4.24988 14.3313 4.24988H16.2688C16.5257 4.24988 16.7721 4.35194 16.9538 4.53362C17.1355 4.71529 17.2375 4.9617 17.2375 5.21863C17.2375 5.47556 17.1355 5.72196 16.9538 5.90364C16.7721 6.08531 16.5257 6.18738 16.2688 6.18738H14.3313C14.0744 6.18738 13.828 6.08531 13.6463 5.90364C13.4646 5.72196 13.3625 5.47556 13.3625 5.21863ZM13.3625 9.09363C13.3625 8.8367 13.4646 8.59029 13.6463 8.40862C13.828 8.22694 14.0744 8.12488 14.3313 8.12488H16.2688C16.5257 8.12488 16.7721 8.22694 16.9538 8.40862C17.1355 8.59029 17.2375 8.8367 17.2375 9.09363C17.2375 9.35056 17.1355 9.59696 16.9538 9.77864C16.7721 9.96031 16.5257 10.0624 16.2688 10.0624H14.3313C14.0744 10.0624 13.828 9.96031 13.6463 9.77864C13.4646 9.59696 13.3625 9.35056 13.3625 9.09363ZM20.1438 9.09363C20.1438 8.8367 20.2459 8.59029 20.4275 8.40862C20.6092 8.22694 20.8556 8.12488 21.1125 8.12488H23.05C23.307 8.12488 23.5534 8.22694 23.7351 8.40862C23.9167 8.59029 24.0188 8.8367 24.0188 9.09363C24.0188 9.35056 23.9167 9.59696 23.7351 9.77864C23.5534 9.96031 23.307 10.0624 23.05 10.0624H21.1125C20.8556 10.0624 20.6092 9.96031 20.4275 9.77864C20.2459 9.59696 20.1438 9.35056 20.1438 9.09363ZM10.4563 12.9686C10.4563 13.2256 10.3542 13.472 10.1726 13.6536C9.99088 13.8353 9.74448 13.9374 9.48755 13.9374H7.55005C7.29312 13.9374 7.04672 13.8353 6.86504 13.6536C6.68336 13.472 6.5813 13.2256 6.5813 12.9686C6.5813 12.7117 6.68336 12.4653 6.86504 12.2836C7.04672 12.1019 7.29312 11.9999 7.55005 11.9999H9.48755C9.74448 11.9999 9.99088 12.1019 10.1726 12.2836C10.3542 12.4653 10.4563 12.7117 10.4563 12.9686ZM10.4563 16.8436C10.4563 17.1006 10.3542 17.347 10.1726 17.5286C9.99088 17.7103 9.74448 17.8124 9.48755 17.8124H7.55005C7.29312 17.8124 7.04672 17.7103 6.86504 17.5286C6.68336 17.347 6.5813 17.1006 6.5813 16.8436C6.5813 16.5867 6.68336 16.3403 6.86504 16.1586C7.04672 15.9769 7.29312 15.8749 7.55005 15.8749H9.48755C9.74448 15.8749 9.99088 15.9769 10.1726 16.1586C10.3542 16.3403 10.4563 16.5867 10.4563 16.8436ZM13.3625 12.9686C13.3625 12.7117 13.4646 12.4653 13.6463 12.2836C13.828 12.1019 14.0744 11.9999 14.3313 11.9999H16.2688C16.5257 11.9999 16.7721 12.1019 16.9538 12.2836C17.1355 12.4653 17.2375 12.7117 17.2375 12.9686C17.2375 13.2256 17.1355 13.472 16.9538 13.6536C16.7721 13.8353 16.5257 13.9374 16.2688 13.9374H14.3313C14.0744 13.9374 13.828 13.8353 13.6463 13.6536C13.4646 13.472 13.3625 13.2256 13.3625 12.9686ZM20.1438 12.9686C20.1438 12.7117 20.2459 12.4653 20.4275 12.2836C20.6092 12.1019 20.8556 11.9999 21.1125 11.9999H23.05C23.307 11.9999 23.5534 12.1019 23.7351 12.2836C23.9167 12.4653 24.0188 12.7117 24.0188 12.9686C24.0188 13.2256 23.9167 13.472 23.7351 13.6536C23.5534 13.8353 23.307 13.9374 23.05 13.9374H21.1125C20.8556 13.9374 20.6092 13.8353 20.4275 13.6536C20.2459 13.472 20.1438 13.2256 20.1438 12.9686ZM20.1438 16.8436C20.1438 16.5867 20.2459 16.3403 20.4275 16.1586C20.6092 15.9769 20.8556 15.8749 21.1125 15.8749H23.05C23.307 15.8749 23.5534 15.9769 23.7351 16.1586C23.9167 16.3403 24.0188 16.5867 24.0188 16.8436C24.0188 17.1006 23.9167 17.347 23.7351 17.5286C23.5534 17.7103 23.307 17.8124 23.05 17.8124H21.1125C20.8556 17.8124 20.6092 17.7103 20.4275 17.5286C20.2459 17.347 20.1438 17.1006 20.1438 16.8436Z" fill="#505050"/>
</svg>
