<svg width="18" height="17" viewBox="0 0 18 17" fill="none" xmlns="http://www.w3.org/2000/svg">
<path d="M4.02701 14.6651L3.26095 15.4312M13.2197 14.6651L13.9858 15.4312M1.72883 8.53666V9.30272C1.72883 11.8307 1.72883 13.0947 2.51404 13.8799C3.29925 14.6651 4.56325 14.6651 7.09125 14.6651H10.1555C12.6835 14.6651 13.9475 14.6651 14.7327 13.8799C15.5179 13.0947 15.5179 11.8307 15.5179 9.30272V8.53666M0.962769 8.53666H16.284M2.49489 8.53666V3.57489C2.49462 3.11003 2.6619 2.66065 2.96606 2.30912C3.27022 1.95759 3.69089 1.72745 4.15096 1.6609C4.61103 1.59436 5.07967 1.69585 5.47098 1.94678C5.86229 2.19772 6.15005 2.58128 6.28152 3.02716L6.32519 3.17424M5.55913 3.9403L7.47428 2.40818" stroke="#333333" stroke-width="1.61756" stroke-linecap="round" stroke-linejoin="round"/>
</svg>
