<svg width="18" height="15" viewBox="0 0 18 15" fill="none" xmlns="http://www.w3.org/2000/svg">
<path d="M1 13.1565V9.00024C1.00186 8.37093 1.25268 7.76792 1.69768 7.32292C2.14267 6.87792 2.74568 6.6271 3.375 6.62524H14.0625C14.6918 6.6271 15.2948 6.87792 15.7398 7.32292C16.1848 7.76792 16.4356 8.37093 16.4375 9.00024V13.1565M13.4688 6.62524H2.78125V2.76587C2.78242 2.37255 2.93919 1.99568 3.21731 1.71756C3.49543 1.43943 3.87231 1.28267 4.26562 1.28149H13.1719C13.5652 1.28267 13.9421 1.43943 14.2202 1.71756C14.4983 1.99568 14.6551 2.37255 14.6562 2.76587V6.62524H13.4688Z" stroke="#505050" stroke-width="1.425" stroke-linecap="round" stroke-linejoin="round"/>
<path d="M1 13.1565V12.8596C1.00069 12.6236 1.09474 12.3975 1.26162 12.2306C1.42849 12.0637 1.65463 11.9697 1.89062 11.969H15.5469C15.7829 11.9697 16.009 12.0637 16.1759 12.2306C16.3428 12.3975 16.4368 12.6236 16.4375 12.8596V13.1565M3.375 6.62524V6.03149C3.37588 5.71682 3.50128 5.41529 3.72378 5.19278C3.94629 4.97027 4.24783 4.84488 4.5625 4.84399H7.53125C7.84592 4.84488 8.14746 4.97027 8.36997 5.19278C8.59247 5.41529 8.71787 5.71682 8.71875 6.03149M8.71875 6.03149V6.62524M8.71875 6.03149C8.71963 5.71682 8.84503 5.41529 9.06753 5.19278C9.29004 4.97027 9.59158 4.84488 9.90625 4.84399H12.875C13.1897 4.84488 13.4912 4.97027 13.7137 5.19278C13.9362 5.41529 14.0616 5.71682 14.0625 6.03149V6.62524" stroke="#505050" stroke-width="1.78125" stroke-linecap="round" stroke-linejoin="round"/>
</svg>
