<svg width="21" height="18" viewBox="0 0 21 18" fill="none" xmlns="http://www.w3.org/2000/svg">
<path fill-rule="evenodd" clip-rule="evenodd" d="M4.5 18C2.29086 18 0.5 16.2091 0.5 14V13C0.5 12.4477 0.960003 12.0163 1.48189 11.8356C2.65653 11.4289 3.5 10.313 3.5 9C3.5 7.68703 2.65653 6.57105 1.48189 6.16437C0.960003 5.98368 0.5 5.55228 0.5 5V4C0.5 1.79086 2.29086 0 4.5 0H8.5H16.5C18.7091 0 20.5 1.79086 20.5 4V5C20.5 5.55228 20.04 5.98368 19.5181 6.16437C18.3435 6.57105 17.5 7.68703 17.5 9C17.5 10.313 18.3435 11.4289 19.5181 11.8356C20.04 12.0163 20.5 12.4477 20.5 13V14C20.5 16.2091 18.7091 18 16.5 18H8.5H4.5ZM9.25 3C9.25 2.58579 8.91421 2.25 8.5 2.25C8.08579 2.25 7.75 2.58579 7.75 3V5C7.75 5.41421 8.08579 5.75 8.5 5.75C8.91421 5.75 9.25 5.41421 9.25 5V3ZM8.5 12.25C8.91421 12.25 9.25 12.5858 9.25 13V15C9.25 15.4142 8.91421 15.75 8.5 15.75C8.08579 15.75 7.75 15.4142 7.75 15V13C7.75 12.5858 8.08579 12.25 8.5 12.25ZM9.25 8C9.25 7.58579 8.91421 7.25 8.5 7.25C8.08579 7.25 7.75 7.58579 7.75 8V10C7.75 10.4142 8.08579 10.75 8.5 10.75C8.91421 10.75 9.25 10.4142 9.25 10V8Z" fill="#A20BA2"/>
</svg>
