<svg width="20" height="20" viewBox="0 0 20 20" fill="none" xmlns="http://www.w3.org/2000/svg">
<path d="M6.49488 4.668C6.16202 4.668 5.88599 4.39197 5.88599 4.05911V1.62354C5.88599 1.29068 6.16202 1.01465 6.49488 1.01465C6.82774 1.01465 7.10377 1.29068 7.10377 1.62354V4.05911C7.10377 4.39197 6.82774 4.668 6.49488 4.668Z" fill="#686464"/>
<path d="M12.9895 4.668C12.6566 4.668 12.3806 4.39197 12.3806 4.05911V1.62354C12.3806 1.29068 12.6566 1.01465 12.9895 1.01465C13.3224 1.01465 13.5984 1.29068 13.5984 1.62354V4.05911C13.5984 4.39197 13.3224 4.668 12.9895 4.668Z" fill="#686464"/>
<path d="M6.90072 11.7716C6.79518 11.7716 6.68964 11.7553 6.59221 11.7066C6.49479 11.666 6.40549 11.6092 6.3243 11.5361C6.17817 11.3819 6.08887 11.1708 6.08887 10.9597C6.08887 10.8542 6.11322 10.7486 6.15382 10.6512C6.19441 10.5538 6.25123 10.4645 6.3243 10.3833C6.40549 10.3102 6.49479 10.2534 6.59221 10.2128C6.88448 10.091 7.24983 10.156 7.47715 10.3833C7.55021 10.4645 7.60704 10.5538 7.64763 10.6512C7.68822 10.7486 7.71258 10.8542 7.71258 10.9597C7.71258 11.1708 7.62328 11.3819 7.47715 11.5361C7.32289 11.6822 7.11181 11.7716 6.90072 11.7716Z" fill="#686464"/>
<path d="M9.74228 11.7722C9.53119 11.7722 9.32011 11.6829 9.16585 11.5368C9.09279 11.4556 9.03596 11.3663 8.99537 11.2689C8.95478 11.1715 8.93042 11.0659 8.93042 10.9604C8.93042 10.7493 9.01972 10.5382 9.16585 10.384C9.39317 10.1566 9.7504 10.0836 10.0508 10.2135C10.1482 10.254 10.2375 10.3109 10.3187 10.384C10.4648 10.5382 10.5541 10.7493 10.5541 10.9604C10.5541 11.0659 10.5379 11.1715 10.4892 11.2689C10.4486 11.3663 10.3918 11.4556 10.3187 11.5368C10.2375 11.6099 10.1482 11.6667 10.0508 11.7073C9.95336 11.756 9.84782 11.7722 9.74228 11.7722Z" fill="#686464"/>
<path d="M6.90072 14.6131C6.79518 14.6131 6.68964 14.5887 6.59221 14.5481C6.49479 14.5075 6.40549 14.4507 6.3243 14.3776C6.17817 14.2234 6.08887 14.0204 6.08887 13.8012C6.08887 13.6957 6.11322 13.5901 6.15382 13.4927C6.19441 13.3871 6.25123 13.306 6.3243 13.2248C6.40549 13.1517 6.49479 13.0949 6.59221 13.0543C6.88448 12.9244 7.24983 12.9975 7.47715 13.2248C7.55021 13.306 7.60704 13.3871 7.64763 13.4927C7.68822 13.5901 7.71258 13.6957 7.71258 13.8012C7.71258 14.0204 7.62328 14.2234 7.47715 14.3776C7.32289 14.5237 7.11181 14.6131 6.90072 14.6131Z" fill="#686464"/>
<path d="M16.6431 7.98829H2.84156C2.5087 7.98829 2.23267 7.71226 2.23267 7.3794C2.23267 7.04654 2.5087 6.77051 2.84156 6.77051H16.6431C16.976 6.77051 17.252 7.04654 17.252 7.3794C17.252 7.71226 16.976 7.98829 16.6431 7.98829Z" fill="#686464"/>
<path d="M14.6134 19.282C12.4863 19.282 10.7571 17.5527 10.7571 15.4257C10.7571 13.2986 12.4863 11.5693 14.6134 11.5693C16.7405 11.5693 18.4697 13.2986 18.4697 15.4257C18.4697 17.5527 16.7405 19.282 14.6134 19.282ZM14.6134 12.7871C13.1602 12.7871 11.9749 13.9724 11.9749 15.4257C11.9749 16.8789 13.1602 18.0642 14.6134 18.0642C16.0666 18.0642 17.2519 16.8789 17.2519 15.4257C17.2519 13.9724 16.0666 12.7871 14.6134 12.7871Z" fill="#686464"/>
<path d="M15.823 16.0742H13.3955C13.0627 16.0742 12.7866 15.7982 12.7866 15.4653C12.7866 15.1325 13.0627 14.8564 13.3955 14.8564H15.823C16.1558 14.8564 16.4319 15.1325 16.4319 15.4653C16.4319 15.7982 16.1639 16.0742 15.823 16.0742Z" fill="#686464"/>
<path d="M14.6133 17.3171C14.2804 17.3171 14.0044 17.0411 14.0044 16.7082V14.2808C14.0044 13.9479 14.2804 13.6719 14.6133 13.6719C14.9461 13.6719 15.2222 13.9479 15.2222 14.2808V16.7082C15.2222 17.0411 14.9461 17.3171 14.6133 17.3171Z" fill="#686464"/>
<path d="M12.4782 18.4695H6.49483C3.53156 18.4695 1.82666 16.7646 1.82666 13.8014V6.90059C1.82666 3.93732 3.53156 2.23242 6.49483 2.23242H12.9897C15.9529 2.23242 17.6578 3.93732 17.6578 6.90059V13.2818C17.6578 13.5334 17.5036 13.7608 17.26 13.8501C17.0246 13.9394 16.7567 13.8744 16.5862 13.6796C16.0828 13.1113 15.3603 12.7865 14.6053 12.7865C13.1521 12.7865 11.9667 13.9719 11.9667 15.4251C11.9667 15.9041 12.0966 16.375 12.3483 16.7809C12.4863 17.0244 12.6649 17.2274 12.8598 17.3979C13.0546 17.5603 13.1277 17.8282 13.0384 18.0717C12.9653 18.3072 12.738 18.4695 12.4782 18.4695ZM6.49483 3.45021C4.17292 3.45021 3.04444 4.57868 3.04444 6.90059V13.8014C3.04444 16.1233 4.17292 17.2518 6.49483 17.2518H11.2198C10.9194 16.6997 10.7571 16.0746 10.7571 15.4251C10.7571 13.298 12.4863 11.5688 14.6134 11.5688C15.2548 11.5688 15.888 11.7311 16.4401 12.0315V6.90059C16.4401 4.57868 15.3116 3.45021 12.9897 3.45021H6.49483Z" fill="#686464"/>
</svg>
