<svg width="13" height="13" viewBox="0 0 13 13" fill="none" xmlns="http://www.w3.org/2000/svg">
<path d="M7.46851 1.57227C7.80384 1.57237 8.11745 1.7405 8.30347 2.01953L9.00854 3.07715H9.5105C10.6185 3.07738 11.5164 3.97592 11.5164 5.08398V8.5957C11.5162 9.7036 10.6184 10.6013 9.5105 10.6016H3.48999C2.38207 10.6014 1.48432 9.70363 1.48413 8.5957V5.08398C1.48413 3.9759 2.38195 3.07734 3.48999 3.07715H3.99194L4.69702 2.01953C4.88305 1.74048 5.19662 1.57234 5.53198 1.57227H7.46851ZM6.49976 5.33496C5.66881 5.3352 4.99487 6.00884 4.99487 6.83984C4.99501 7.67073 5.6689 8.34448 6.49976 8.34473C7.33082 8.34473 8.00548 7.67088 8.00562 6.83984C8.00562 6.00869 7.33091 5.33496 6.49976 5.33496ZM6.49976 2.5752C6.22295 2.57544 5.99883 2.80029 5.99878 3.07715C5.99878 3.35405 6.22291 3.57886 6.49976 3.5791C6.77681 3.5791 7.00171 3.3542 7.00171 3.07715C7.00165 2.80014 6.77677 2.5752 6.49976 2.5752Z" fill="white"/>
</svg>
