<svg width="29" height="27" viewBox="0 0 29 27" fill="none" xmlns="http://www.w3.org/2000/svg">
<path fill-rule="evenodd" clip-rule="evenodd" d="M8.76716 3.48267C9.11488 1.736 10.6334 0.5 12.372 0.5H16.628C18.3666 0.5 19.8838 1.736 20.2328 3.48267C20.2713 3.675 20.3719 3.84849 20.5183 3.97522C20.6648 4.10195 20.8486 4.17455 21.0403 4.18133H21.0833C22.9104 4.264 24.3143 4.49333 25.4864 5.28133C26.2248 5.77733 26.8604 6.41467 27.3553 7.16C27.9713 8.08533 28.2421 9.14933 28.3724 10.4347C28.5 11.692 28.5 13.2667 28.5 15.2613V15.3747C28.5 17.3693 28.5 18.9453 28.3724 20.2013C28.2421 21.4867 27.9713 22.5507 27.3553 23.4773C26.8577 24.2221 26.2228 24.8603 25.4864 25.356C24.5709 25.9707 23.5199 26.2427 22.2462 26.372C20.9986 26.5 19.4345 26.5 17.4472 26.5H11.5528C9.56549 26.5 8.0014 26.5 6.75377 26.372C5.48009 26.2427 4.42912 25.972 3.51358 25.356C2.77704 24.8599 2.14222 24.2212 1.64474 23.476C1.02874 22.5507 0.757861 21.4867 0.627628 20.2013C0.5 18.9453 0.5 17.3693 0.5 15.3747V15.2613C0.5 13.2667 0.5 11.692 0.627628 10.4347C0.757861 9.14933 1.02874 8.08533 1.64474 7.16C2.14222 6.41476 2.77704 5.77614 3.51358 5.28C4.68567 4.49333 6.08958 4.264 7.91674 4.18267L7.93888 4.18133H7.95972C8.15137 4.17455 8.33521 4.10195 8.48167 3.97522C8.62813 3.84849 8.72869 3.675 8.76716 3.48267ZM12.372 2.5C11.5385 2.5 10.8392 3.09067 10.6816 3.88133C10.4276 5.16133 9.31805 6.16933 7.98316 6.18133C6.22763 6.26133 5.28735 6.48133 4.58409 6.95333C4.06244 7.30524 3.61261 7.75763 3.25963 8.28533C2.90019 8.82533 2.684 9.51733 2.5694 10.6413C2.45479 11.7827 2.45349 13.2547 2.45349 15.3187C2.45349 17.3827 2.45349 18.8533 2.5707 19.9947C2.684 21.1187 2.90019 21.8107 3.26093 22.352C3.60995 22.8773 4.05926 23.3307 4.5854 23.684C5.12847 24.048 5.82391 24.268 6.94781 24.3827C8.08605 24.4987 9.55247 24.5 11.6062 24.5H17.3938C19.4462 24.5 20.9127 24.5 22.0522 24.3827C23.1761 24.268 23.8715 24.0493 24.4146 23.684C24.9407 23.3307 25.3913 22.8773 25.7404 22.3507C26.0998 21.8107 26.316 21.1187 26.4306 19.9947C26.5452 18.8533 26.5465 17.3813 26.5465 15.3187C26.5465 13.256 26.5465 11.7827 26.4293 10.6413C26.316 9.51733 26.0998 8.82533 25.7391 8.28533C25.3862 7.75715 24.9364 7.3043 24.4146 6.952C23.714 6.48133 22.7737 6.26133 21.0155 6.18133C19.682 6.168 18.5724 5.16267 18.3184 3.88133C18.2351 3.48703 18.0214 3.13425 17.7134 2.88259C17.4054 2.63092 17.022 2.49578 16.628 2.5H12.372ZM14.5 11.8333C13.7229 11.8333 12.9775 12.1494 12.428 12.712C11.8785 13.2746 11.5698 14.0377 11.5698 14.8333C11.5698 15.629 11.8785 16.392 12.428 16.9547C12.9775 17.5173 13.7229 17.8333 14.5 17.8333C15.2771 17.8333 16.0225 17.5173 16.572 16.9547C17.1215 16.392 17.4302 15.629 17.4302 14.8333C17.4302 14.0377 17.1215 13.2746 16.572 12.712C16.0225 12.1494 15.2771 11.8333 14.5 11.8333ZM9.61628 14.8333C9.61628 13.5073 10.1308 12.2355 11.0467 11.2978C11.9626 10.3601 13.2048 9.83333 14.5 9.83333C15.7952 9.83333 17.0374 10.3601 17.9533 11.2978C18.8692 12.2355 19.3837 13.5073 19.3837 14.8333C19.3837 16.1594 18.8692 17.4312 17.9533 18.3689C17.0374 19.3065 15.7952 19.8333 14.5 19.8333C13.2048 19.8333 11.9626 19.3065 11.0467 18.3689C10.1308 17.4312 9.61628 16.1594 9.61628 14.8333ZM21.3372 10.8333C21.3372 10.5681 21.4401 10.3138 21.6233 10.1262C21.8065 9.93869 22.0549 9.83333 22.314 9.83333H23.6163C23.8753 9.83333 24.1238 9.93869 24.3069 10.1262C24.4901 10.3138 24.593 10.5681 24.593 10.8333C24.593 11.0985 24.4901 11.3529 24.3069 11.5404C24.1238 11.728 23.8753 11.8333 23.6163 11.8333H22.314C22.0549 11.8333 21.8065 11.728 21.6233 11.5404C21.4401 11.3529 21.3372 11.0985 21.3372 10.8333Z" fill="#505050"/>
</svg>
