<svg width="18" height="17" viewBox="0 0 18 17" fill="none" xmlns="http://www.w3.org/2000/svg">
<path d="M11.1429 7.6589H12.4286V5.97469H14.1429C14.5 5.97469 14.8037 5.85203 15.054 5.60669C15.3043 5.36136 15.4291 5.06297 15.4286 4.71153V3.86943C15.4286 3.51855 15.3037 3.22045 15.054 2.97511C14.8043 2.72978 14.5006 2.60683 14.1429 2.60627H11.1429V7.6589ZM12.4286 4.71153V3.86943H14.1429V4.71153H12.4286ZM9.42857 10.1852C8.95714 10.1852 8.55371 10.0204 8.21829 9.6909C7.88286 9.36136 7.71486 8.96473 7.71429 8.50101V1.76417C7.71429 1.30101 7.88229 0.904658 8.21829 0.575114C8.55429 0.24557 8.95771 0.0805175 9.42857 0.0799561H16.2857C16.7571 0.0799561 17.1609 0.245009 17.4969 0.575114C17.8329 0.905219 18.0006 1.30157 18 1.76417V8.50101C18 8.96416 17.8323 9.3608 17.4969 9.6909C17.1614 10.021 16.7577 10.1858 16.2857 10.1852H13.7143V16.08H12V10.1852H9.42857ZM9.42857 8.50101H16.2857V1.76417H9.42857V8.50101ZM5.14286 16.08C4.9 16.08 4.69657 15.9991 4.53257 15.8374C4.36857 15.6757 4.28629 15.4759 4.28571 15.2378V14.3957H0V12.7115H5.14286V8.50101H0V6.8168H4.45714L3.55714 4.29048H0V2.60627H3.85714C4.12857 2.60627 4.37514 2.68346 4.59686 2.83785C4.81857 2.99224 4.972 3.19574 5.05714 3.44838L6.85714 8.50101V15.2378C6.85714 15.4764 6.77486 15.6766 6.61029 15.8383C6.44571 16 6.24229 16.0805 6 16.08H5.14286ZM3 11.8694C3.35714 11.8694 3.66086 11.7468 3.91114 11.5014C4.16143 11.2561 4.28629 10.9577 4.28571 10.6063C4.28514 10.2548 4.16029 9.95673 3.91114 9.71195C3.662 9.46718 3.35829 9.34423 3 9.34311C2.64171 9.34199 2.33829 9.46494 2.08971 9.71195C1.84114 9.95897 1.716 10.2571 1.71429 10.6063C1.71257 10.9555 1.83771 11.2538 2.08971 11.5014C2.34171 11.749 2.64514 11.8717 3 11.8694Z" fill="#505050"/>
</svg>
