<svg width="20" height="20" viewBox="0 0 20 20" fill="none" xmlns="http://www.w3.org/2000/svg">
<path d="M2.5 10.8335V17.5002M2.5 13.7502H5.41667L7.08333 11.2502M2.91667 8.3335L13.9475 15.6872C14.0131 15.731 14.0899 15.7551 14.1687 15.757C14.2475 15.7588 14.3253 15.7383 14.3929 15.6977L18.3333 13.3335" stroke="#333333" stroke-width="1.5" stroke-linecap="round" stroke-linejoin="round"/>
<path d="M2.94919 5.29968C2.89613 5.26436 2.85188 5.21733 2.81985 5.16222C2.78782 5.1071 2.76886 5.04538 2.76443 4.98178C2.76001 4.91819 2.77023 4.85443 2.79431 4.79541C2.8184 4.73639 2.85571 4.68369 2.90336 4.64135L6.01169 1.87885C6.08007 1.818 6.16657 1.78136 6.25784 1.77458C6.34912 1.7678 6.44009 1.79127 6.51669 1.84135L17.7938 9.22968C17.852 9.26784 17.8998 9.31998 17.9327 9.38133C17.9655 9.44269 17.9825 9.51131 17.9821 9.58093C17.9816 9.65055 17.9637 9.71894 17.93 9.77987C17.8963 9.84079 17.8479 9.89229 17.7892 9.92968L13.9792 12.3547C13.911 12.398 13.8317 12.4207 13.751 12.4198C13.6702 12.4189 13.5914 12.3945 13.5242 12.3497L2.94919 5.29968Z" stroke="#333333" stroke-width="1.5"/>
</svg>
