<svg width="18" height="18" viewBox="0 0 18 18" fill="none" xmlns="http://www.w3.org/2000/svg">
<g opacity="0.8" clip-path="url(#clip0_489_16379)">
<path d="M2.2747 7.5L15.7253 7.5C16.4904 7.5 16.7908 6.48643 16.1542 6.05294L9.85787 1.76531C9.33838 1.41156 8.66162 1.41156 8.14213 1.76531L1.84576 6.05294C1.20918 6.48643 1.50962 7.5 2.2747 7.5Z" stroke="#686464" stroke-width="1.5"/>
<rect x="3" y="7.5" width="3.75" height="6" stroke="#686464" stroke-width="1.5"/>
<rect x="11.25" y="7.5" width="3.75" height="6" stroke="#686464" stroke-width="1.5"/>
<path d="M14.382 13.5C14.7607 13.5 15.107 13.714 15.2764 14.0528L15.7764 15.0528C16.1088 15.7177 15.6253 16.5 14.882 16.5L3.11803 16.5C2.37465 16.5 1.89116 15.7177 2.22361 15.0528L2.72361 14.0528C2.893 13.714 3.23926 13.5 3.61803 13.5L14.382 13.5Z" stroke="#686464" stroke-width="1.5"/>
</g>
<defs>
<clipPath id="clip0_489_16379">
<rect width="18" height="18" fill="white"/>
</clipPath>
</defs>
</svg>
