<svg width="14" height="18" viewBox="0 0 14 18" fill="none" xmlns="http://www.w3.org/2000/svg">
<path d="M10 6H4C2.34315 6 1 7.34315 1 9V13.5C1 15.1569 2.34315 16.5 4 16.5H10C11.6569 16.5 13 15.1569 13 13.5V9C13 7.34315 11.6569 6 10 6ZM10 6L10 4.5C10 2.84315 8.65688 1.5 7.00002 1.5C5.8896 1.5 4.92008 2.1033 4.40137 3M8.5 11.25C8.5 12.0784 7.82843 12.75 7 12.75C6.17157 12.75 5.5 12.0784 5.5 11.25C5.5 10.4216 6.17157 9.75 7 9.75C7.82843 9.75 8.5 10.4216 8.5 11.25Z" stroke="#686464" stroke-width="1.5" stroke-linecap="round" stroke-linejoin="round"/>
</svg>
