<svg width="19" height="19" viewBox="0 0 19 19" fill="none" xmlns="http://www.w3.org/2000/svg">
<path fill-rule="evenodd" clip-rule="evenodd" d="M5.30561 2.65754C5.6811 1.86264 6.27472 1.19081 7.01731 0.720305C7.75991 0.249802 8.62091 0 9.5 0C10.3791 0 11.2401 0.249802 11.9827 0.720305C12.7253 1.19081 13.3189 1.86264 13.6944 2.65754C14.8419 2.60667 15.9729 2.94619 16.9027 3.62071C17.8325 4.29523 18.5063 5.26495 18.8141 6.37165C19.122 7.47835 19.0457 8.65672 18.5978 9.71451C18.1499 10.7723 17.3568 11.6471 16.3478 12.1962V14.8488C16.3478 15.6431 16.3478 16.305 16.2771 16.8298C16.2029 17.3848 16.0385 17.8858 15.6356 18.2878C15.2336 18.6907 14.7326 18.8551 14.1777 18.9293C13.6529 19 12.9902 19 12.1967 19H6.80329C6.00983 19 5.34714 19 4.82229 18.9293C4.2674 18.8551 3.76641 18.6907 3.36437 18.2878C2.96146 17.8858 2.79711 17.3848 2.72289 16.8298C2.6522 16.305 2.6522 15.6431 2.6522 14.8488V12.197C1.64323 11.648 0.850086 10.7732 0.402172 9.7154C-0.045742 8.6576 -0.12199 7.47923 0.185867 6.37253C0.493724 5.26583 1.16752 4.29612 2.09732 3.62159C3.02712 2.94707 4.15805 2.60667 5.30561 2.65754ZM4.908 3.98384C4.06098 4.02299 3.25215 4.34765 2.61312 4.90499C1.97409 5.46234 1.54248 6.21955 1.38854 7.0534C1.2346 7.88726 1.36738 8.74867 1.76528 9.49746C2.16318 10.2462 2.80277 10.8383 3.57997 11.1774C3.6981 11.2289 3.79862 11.3138 3.86925 11.4216C3.93987 11.5294 3.97752 11.6555 3.97758 11.7844V14.1401H15.0224V11.7844C15.0225 11.6555 15.0601 11.5294 15.1308 11.4216C15.2014 11.3138 15.3019 11.2289 15.42 11.1774C16.197 10.838 16.8362 10.2458 17.2339 9.49703C17.6316 8.74826 17.7642 7.88697 17.6103 7.05323C17.4564 6.21949 17.025 5.46234 16.3862 4.90491C15.7474 4.34747 14.9389 4.02254 14.092 3.98296C14.1232 4.19797 14.1388 4.4174 14.1388 4.64125V5.08306C14.1388 5.25882 14.069 5.42738 13.9447 5.55167C13.8205 5.67595 13.6519 5.74577 13.4761 5.74577C13.3004 5.74577 13.1318 5.67595 13.0075 5.55167C12.8833 5.42738 12.8134 5.25882 12.8134 5.08306V4.64125C12.8139 4.20598 12.7285 3.77489 12.5622 3.37266C12.3958 2.97043 12.1518 2.60496 11.844 2.29718C11.5362 1.98939 11.1708 1.74533 10.7686 1.57898C10.3663 1.41262 9.93526 1.32723 9.5 1.32769C8.62122 1.32769 7.77843 1.6768 7.15704 2.29821C6.53564 2.91962 6.18655 3.76244 6.18655 4.64125V5.08306C6.18655 5.25882 6.11673 5.42738 5.99245 5.55167C5.86817 5.67595 5.69962 5.74577 5.52386 5.74577C5.3481 5.74577 5.17955 5.67595 5.05527 5.55167C4.93099 5.42738 4.86117 5.25882 4.86117 5.08306V4.64125C4.86117 4.4174 4.87678 4.19885 4.908 3.98384ZM15.0206 15.4655H3.97935C3.98288 15.9692 3.99526 16.3492 4.03678 16.654C4.09157 17.0613 4.18611 17.2363 4.30186 17.3512C4.41761 17.466 4.59079 17.5606 4.99813 17.6163C5.4249 17.6728 5.99746 17.6746 6.84924 17.6746H12.1508C13.0025 17.6746 13.5751 17.6728 14.0019 17.6154C14.4092 17.5606 14.5842 17.466 14.699 17.3503C14.8139 17.2345 14.9084 17.0613 14.9641 16.654C15.0047 16.3483 15.0171 15.9683 15.0206 15.4655ZM11.4916 6.56577C12.3169 6.85471 12.8134 7.64819 12.8134 8.61752C12.8134 9.2979 12.4238 9.89965 12.0403 10.3432C11.64 10.8062 11.1444 11.2118 10.7379 11.5096L10.6761 11.5564C10.365 11.7862 10.0116 12.0468 9.5 12.0468C8.98752 12.0468 8.63408 11.7853 8.32483 11.5564L8.26298 11.5105C7.85653 11.2118 7.35995 10.8062 6.95969 10.3432C6.57533 9.89876 6.18655 9.2979 6.18655 8.61752C6.18655 7.64819 6.68313 6.85471 7.5084 6.56577C8.15253 6.33956 8.86735 6.4668 9.5 6.88387C10.1326 6.4668 10.8475 6.33956 11.4916 6.56577ZM11.0533 7.81608C10.8324 7.73832 10.4225 7.76306 9.9577 8.20841C9.83436 8.32642 9.67025 8.39228 9.49956 8.39228C9.32886 8.39228 9.16475 8.32642 9.04142 8.20841C8.57754 7.76306 8.16755 7.73832 7.94577 7.81608C7.74431 7.88677 7.51193 8.10856 7.51193 8.61752C7.51193 8.8075 7.63652 9.09997 7.96256 9.47639C8.27005 9.83249 8.67738 10.1709 9.04584 10.4413C9.16401 10.5339 9.28796 10.6189 9.41694 10.6958C9.46466 10.7214 9.47879 10.7223 9.5 10.7223C9.5212 10.7223 9.53534 10.7214 9.58306 10.6958C9.71204 10.6189 9.83599 10.5339 9.95416 10.4413C10.3226 10.1709 10.73 9.83161 11.0383 9.47639C11.3635 9.09997 11.4881 8.8075 11.4881 8.61752C11.4881 8.10856 11.2557 7.88765 11.0533 7.81608Z" fill="#333333"/>
</svg>
