<svg width="20" height="18" viewBox="0 0 20 18" fill="none" xmlns="http://www.w3.org/2000/svg">
<path d="M13.8769 17.0283V14.6631C13.8769 13.9251 13.5852 13.2173 13.0658 12.6955C12.5465 12.1737 11.8421 11.8805 11.1077 11.8805H8.89231C8.15786 11.8805 7.4535 12.1737 6.93417 12.6955C6.41483 13.2173 6.12308 13.9251 6.12308 14.6631V17.0283M19 12.1588V10.4892C19 9.7512 18.7082 9.04343 18.1889 8.52159C17.6696 7.99975 16.9652 7.70658 16.2308 7.70658H14.1538M1 12.1588V10.4892C1 9.7512 1.29176 9.04343 1.81109 8.52159C2.33042 7.99975 3.03479 7.70658 3.76923 7.70658H5.84615M12.2223 7.43528C12.2223 7.72852 12.1648 8.0189 12.0531 8.28983C11.9415 8.56075 11.7778 8.80692 11.5714 9.01428C11.365 9.22163 11.1201 9.38612 10.8504 9.49834C10.5808 9.61056 10.2918 9.66832 10 9.66832C9.70816 9.66832 9.41918 9.61056 9.14956 9.49834C8.87994 9.38612 8.63495 9.22163 8.42859 9.01428C8.22223 8.80692 8.05854 8.56075 7.94686 8.28983C7.83517 8.0189 7.77769 7.72852 7.77769 7.43528C7.77769 6.84304 8.01183 6.27505 8.42859 5.85628C8.84536 5.4375 9.41061 5.20223 10 5.20223C10.5894 5.20223 11.1546 5.4375 11.5714 5.85628C11.9882 6.27505 12.2223 6.84304 12.2223 7.43528ZM17.4838 3.26136C17.4838 3.55461 17.4264 3.84499 17.3147 4.11591C17.203 4.38684 17.0393 4.63301 16.8329 4.84036C16.6266 5.04772 16.3816 5.21221 16.112 5.32443C15.8424 5.43665 15.5534 5.49441 15.2615 5.49441C14.9697 5.49441 14.6807 5.43665 14.4111 5.32443C14.1415 5.21221 13.8965 5.04772 13.6901 4.84036C13.4838 4.63301 13.3201 4.38684 13.2084 4.11591C13.0967 3.84499 13.0392 3.55461 13.0392 3.26136C13.0392 2.66912 13.2734 2.10114 13.6901 1.68236C14.1069 1.26359 14.6721 1.02832 15.2615 1.02832C15.8509 1.02832 16.4162 1.26359 16.8329 1.68236C17.2497 2.10114 17.4838 2.66912 17.4838 3.26136ZM7.09923 3.26136C7.09923 3.55461 7.04175 3.84499 6.93007 4.11591C6.81839 4.38684 6.65469 4.63301 6.44833 4.84036C6.24197 5.04772 5.99699 5.21221 5.72736 5.32443C5.45774 5.43665 5.16876 5.49441 4.87692 5.49441C4.58509 5.49441 4.29611 5.43665 4.02648 5.32443C3.75686 5.21221 3.51187 5.04772 3.30551 4.84036C3.09915 4.63301 2.93546 4.38684 2.82378 4.11591C2.7121 3.84499 2.65462 3.55461 2.65462 3.26136C2.65462 2.66912 2.88875 2.10114 3.30551 1.68236C3.72228 1.26359 4.28753 1.02832 4.87692 1.02832C5.46632 1.02832 6.03157 1.26359 6.44833 1.68236C6.8651 2.10114 7.09923 2.66912 7.09923 3.26136Z" stroke="#505050" stroke-width="1.5"/>
</svg>
