<svg width="72" height="72" viewBox="0 0 72 72" fill="none" xmlns="http://www.w3.org/2000/svg">
<rect x="5.5" y="5.28906" width="61" height="61" rx="30.5" fill="#FEE4E2"/>
<rect x="5.5" y="5.28906" width="61" height="61" rx="30.5" stroke="#FEF3F2" stroke-width="10.1667"/>
<path d="M41.0833 28.1634V27.1467C41.0833 25.7233 41.0833 25.0115 40.8063 24.4679C40.5626 23.9896 40.1738 23.6008 39.6956 23.3571C39.1519 23.0801 38.4401 23.0801 37.0167 23.0801H34.9833C33.5599 23.0801 32.8481 23.0801 32.3044 23.3571C31.8262 23.6008 31.4374 23.9896 31.1937 24.4679C30.9167 25.0115 30.9167 25.7233 30.9167 27.1467V28.1634M33.4583 35.153V41.5072M38.5417 35.153V41.5072M24.5625 28.1634H47.4375M44.8958 28.1634V42.3967C44.8958 44.5319 44.8958 45.5995 44.4803 46.4151C44.1148 47.1325 43.5315 47.7157 42.8142 48.0812C41.9986 48.4967 40.931 48.4967 38.7958 48.4967H33.2042C31.069 48.4967 30.0014 48.4967 29.1858 48.0812C28.4685 47.7157 27.8852 47.1325 27.5197 46.4151C27.1042 45.5995 27.1042 44.5319 27.1042 42.3967V28.1634" stroke="#D92D20" stroke-width="2.54167" stroke-linecap="round" stroke-linejoin="round"/>
</svg>
