<svg width="16" height="19" viewBox="0 0 16 19" fill="none" xmlns="http://www.w3.org/2000/svg">
<path d="M2.25 3.65332L3.03125 16.1533C3.06836 16.8756 3.59375 17.4033 4.28125 17.4033H11.4688C12.159 17.4033 12.6746 16.8756 12.7188 16.1533L13.5 3.65332" stroke="#505050" stroke-width="1.5" stroke-linecap="round" stroke-linejoin="round"/>
<path d="M1 3.65332H14.75H1Z" fill="#505050"/>
<path d="M1 3.65332H14.75" stroke="#505050" stroke-miterlimit="10" stroke-linecap="round"/>
<path d="M5.375 3.65332V2.09082C5.37464 1.96761 5.39864 1.84554 5.44563 1.73163C5.49261 1.61773 5.56166 1.51423 5.64878 1.42711C5.73591 1.33998 5.8394 1.27094 5.95331 1.22395C6.06721 1.17697 6.18928 1.15296 6.3125 1.15332H9.4375C9.56072 1.15296 9.68279 1.17697 9.79669 1.22395C9.9106 1.27094 10.0141 1.33998 10.1012 1.42711C10.1883 1.51423 10.2574 1.61773 10.3044 1.73163C10.3514 1.84554 10.3754 1.96761 10.375 2.09082V3.65332M7.875 6.15332V14.9033M5.0625 6.15332L5.375 14.9033M10.6875 6.15332L10.375 14.9033" stroke="#505050" stroke-width="1.2" stroke-linecap="round" stroke-linejoin="round"/>
</svg>
