<svg width="14" height="16" viewBox="0 0 14 16" fill="none" xmlns="http://www.w3.org/2000/svg">
<path d="M9.25 6.69977L8.28033 7.66944C7.98744 7.96233 7.98744 8.4372 8.28033 8.7301L9.25 9.69977M8.5 8.19977L13 8.19977M1 11.9497V4.44975M10 11.9497C10 12.7782 9.32843 13.4497 8.5 13.4497H5.5M10 4.44975C10 3.62132 9.32843 2.94975 8.5 2.94975H5.5M1.66795 13.895L3.16795 14.895C4.16478 15.5596 5.5 14.845 5.5 13.647V2.75252C5.5 1.55448 4.16478 0.839892 3.16795 1.50445L1.66795 2.50445C1.25065 2.78265 1 3.25099 1 3.75252V12.647C1 13.1485 1.25065 13.6168 1.66795 13.895Z" stroke="#686464" stroke-width="1.5" stroke-linecap="round"/>
</svg>
