<svg width="18" height="17" viewBox="0 0 18 17" fill="none" xmlns="http://www.w3.org/2000/svg">
<circle cx="9" cy="8.5" r="8.14062" fill="white" stroke="#A20BA2" stroke-width="0.71875"/>
<path d="M5.58906 9.37779C5.71552 9.58705 5.6484 9.8592 5.43914 9.98566C5.22989 10.1121 4.95773 10.045 4.83127 9.83575C4.65149 9.53826 4.52951 9.2819 4.45779 9.11641C4.35508 8.87945 4.36999 8.61266 4.49511 8.38924C4.68603 8.0483 5.16834 7.26012 5.91166 6.55194C6.65328 5.84538 7.69679 5.17969 9.00017 5.17969C10.3035 5.17969 11.3471 5.84538 12.0887 6.55194C12.832 7.26012 13.3143 8.0483 13.5052 8.38924C13.6304 8.61266 13.6453 8.87945 13.5426 9.11641C13.4708 9.2819 13.3489 9.53826 13.1691 9.83575C13.0426 10.045 12.7705 10.1121 12.5612 9.98566C12.3519 9.8592 12.2848 9.58705 12.4113 9.37779C12.5559 9.13852 12.6562 8.93159 12.7171 8.79415C12.5375 8.47757 12.112 7.79712 11.4779 7.19299C10.8229 6.56898 9.98739 6.0651 9.00017 6.0651C8.01295 6.0651 7.17739 6.56898 6.52241 7.19299C5.88831 7.79712 5.46289 8.47757 5.28326 8.79415C5.34412 8.93159 5.44446 9.13852 5.58906 9.37779Z" fill="#8C068C"/>
<path d="M9.00017 10.7135C9.97817 10.7135 10.771 9.92071 10.771 8.94271C10.771 7.9647 9.97817 7.17187 9.00017 7.17187C8.02217 7.17187 7.22934 7.9647 7.22934 8.94271C7.22934 9.92071 8.02217 10.7135 9.00017 10.7135Z" fill="#8C068C"/>
</svg>
