<svg width="18" height="17" viewBox="0 0 18 17" fill="none" xmlns="http://www.w3.org/2000/svg">
<rect x="1" y="0.5" width="16" height="16" rx="8" fill="white"/>
<rect x="1" y="0.5" width="16" height="16" rx="8" stroke="#A20BA2"/>
<path d="M4.59888 4.0987C4.54172 4.15585 4.50697 4.23161 4.50094 4.31221C4.49491 4.39281 4.51801 4.4729 4.56603 4.53791L4.59888 4.57571L6.4142 6.39148C5.52946 7.01228 4.8977 7.93076 4.63443 8.97902C4.61417 9.06533 4.62869 9.15615 4.67484 9.23185C4.721 9.30754 4.79509 9.36204 4.88109 9.38356C4.9671 9.40507 5.05812 9.39188 5.13449 9.34684C5.21085 9.30179 5.26642 9.22851 5.28919 9.14282C5.5231 8.2124 6.09811 7.40385 6.9002 6.87749L7.71471 7.692C7.38936 8.03198 7.21007 8.48585 7.21526 8.95639C7.22045 9.42694 7.4097 9.87675 7.74248 10.2095C8.07526 10.5422 8.52509 10.7314 8.99564 10.7365C9.46618 10.7416 9.92002 10.5622 10.2599 10.2368L12.9235 12.9008C12.9837 12.9612 13.0646 12.9966 13.1498 12.9998C13.235 13.003 13.3183 12.9738 13.3829 12.9181C13.4475 12.8624 13.4886 12.7843 13.498 12.6996C13.5073 12.6148 13.4842 12.5296 13.4334 12.4612L13.4005 12.4234L10.6496 9.67203L10.6501 9.67113L7.52256 6.54539L7.52346 6.54449L7.01361 6.03598L5.07589 4.0987C5.0126 4.0355 4.92682 4 4.83738 4C4.74794 4 4.66216 4.0355 4.59888 4.0987ZM8.99993 5.57472C8.54992 5.57472 8.11342 5.64132 7.69986 5.76598L8.25652 6.32218C9.21933 6.13154 10.2186 6.31817 11.0477 6.84348C11.8768 7.3688 12.4723 8.19262 12.7111 9.14462C12.7344 9.22964 12.7901 9.30216 12.8662 9.34668C12.9423 9.39119 13.0328 9.40417 13.1183 9.38283C13.2038 9.36149 13.2776 9.30753 13.3239 9.23249C13.3702 9.15744 13.3852 9.06728 13.3659 8.98127C13.1221 8.008 12.56 7.14412 11.7689 6.52691C10.9779 5.9097 10.0033 5.57455 8.99993 5.57472ZM9.08768 7.15424L10.7981 8.86427C10.776 8.41782 10.5887 7.99554 10.2726 7.6795C9.95646 7.36347 9.53413 7.17625 9.08768 7.15424Z" fill="#A20BA2"/>
</svg>
