<svg width="18" height="16" viewBox="0 0 18 16" fill="none" xmlns="http://www.w3.org/2000/svg">
<path d="M2.33341 1.33331L15.6667 14.6666M10.6667 9.8634C10.2245 10.2593 9.64038 10.5 9.00008 10.5C7.61937 10.5 6.50008 9.38069 6.50008 7.99998C6.50008 7.35968 6.74079 6.77561 7.13666 6.33331M15.3399 11.0064C15.816 10.5919 16.2419 10.1749 16.6087 9.78906C17.575 8.77234 17.575 7.22762 16.6087 6.2109C14.9788 4.49609 12.1797 2.16665 9.00008 2.16665C8.25727 2.16665 7.53522 2.29378 6.844 2.51051M4.41675 3.66947C3.20128 4.44534 2.16478 5.3973 1.3915 6.21089C0.425163 7.22762 0.425163 8.77234 1.3915 9.78906C3.02132 11.5039 5.82048 13.8333 9.00008 13.8333C10.5568 13.8333 12.0224 13.2749 13.3041 12.5037" stroke="#666666" stroke-width="1.25" stroke-linecap="round"/>
</svg>
