<svg width="18" height="16" viewBox="0 0 18 16" fill="none" xmlns="http://www.w3.org/2000/svg">
<path d="M13.0294 5.12957C15.0739 6.04771 16.5 8.12086 16.5 10.5312V13.0625C16.5 13.9945 15.7538 14.75 14.8333 14.75H9.83333C7.6563 14.75 5.80424 13.3413 5.11784 11.375M13.0294 5.12957C12.5033 2.90424 10.5258 1.25 8.16667 1.25H7.33333C4.11167 1.25 1.5 3.89432 1.5 7.15625V9.6875C1.5 10.6195 2.24619 11.375 3.16667 11.375H5.11784M13.0294 5.12957C13.1192 5.50906 13.1667 5.90516 13.1667 6.3125C13.1667 9.10844 10.9281 11.375 8.16667 11.375H5.11784M7.5 6.5C8.32843 6.5 9 5.82843 9 5C9 4.17157 8.32843 3.5 7.5 3.5C6.67157 3.5 6 4.17157 6 5" stroke="#686464" stroke-width="1.5" stroke-linecap="round" stroke-linejoin="round"/>
</svg>
