<svg width="21" height="18" viewBox="0 0 21 18" fill="none" xmlns="http://www.w3.org/2000/svg">
<path fill-rule="evenodd" clip-rule="evenodd" d="M10.2998 2.52422L11.0648 1.70229C13.1775 -0.567429 16.6027 -0.567429 18.7153 1.70229C20.828 3.972 20.828 7.65194 18.7153 9.92165L11.8299 17.3191C10.9849 18.227 9.61475 18.227 8.76971 17.3191L1.88427 9.92165C-0.228351 7.65194 -0.22835 3.972 1.88427 1.70229C3.9969 -0.56743 7.42213 -0.567428 9.53476 1.70229L10.2998 2.52422ZM15.2998 2.25C14.8856 2.25 14.5498 2.58579 14.5498 3C14.5498 3.41421 14.8856 3.75 15.2998 3.75C15.9902 3.75 16.5498 4.30964 16.5498 5C16.5498 5.41421 16.8856 5.75 17.2998 5.75C17.714 5.75 18.0498 5.41421 18.0498 5C18.0498 3.48122 16.8186 2.25 15.2998 2.25Z" fill="#A20BA2"/>
</svg>
