<svg width="18" height="20" viewBox="0 0 18 20" fill="none" xmlns="http://www.w3.org/2000/svg">
<path d="M4.55557 9.88965H16.1112C16.3469 9.88965 16.573 9.9833 16.7397 10.15C16.9064 10.3167 17.0001 10.5428 17.0001 10.7785C17.0001 11.9573 16.5318 13.0877 15.6983 13.9212C14.8648 14.7547 13.7343 15.2229 12.5556 15.2229H12.024C11.9447 15.2229 11.8668 15.2442 11.7985 15.2844C11.7301 15.3247 11.6738 15.3825 11.6353 15.4519C11.5968 15.5213 11.5777 15.5997 11.5797 15.679C11.5818 15.7583 11.6051 15.8356 11.6471 15.9029L13.0196 18.0984C13.0616 18.1657 13.0849 18.243 13.087 18.3223C13.0891 18.4016 13.0699 18.4801 13.0314 18.5494C12.993 18.6188 12.9366 18.6767 12.8683 18.7169C12.7999 18.7572 12.722 18.7784 12.6427 18.7784H3.13512C3.05578 18.7784 2.9779 18.7572 2.90954 18.7169C2.84118 18.6767 2.78485 18.6188 2.74639 18.5494C2.70793 18.4801 2.68874 18.4016 2.69083 18.3223C2.69291 18.243 2.71618 18.1657 2.75823 18.0984L4.55557 15.2229" stroke="#505050" stroke-width="1.5" stroke-linecap="round" stroke-linejoin="round"/>
<path d="M5.44446 15.2225C4.26571 15.2225 3.13525 14.7543 2.30175 13.9208C1.46825 13.0873 1 11.9569 1 10.7781V2.77824C1 2.30675 1.1873 1.85458 1.5207 1.52118C1.8541 1.18779 2.30629 1.00049 2.77778 1.00049H9.88892C10.3604 1.00049 10.8126 1.18779 11.146 1.52118C11.4794 1.85458 11.6667 2.30675 11.6667 2.77824V9.88927" stroke="#505050" stroke-width="1.5" stroke-linecap="round" stroke-linejoin="round"/>
</svg>
