<svg width="18" height="18" viewBox="0 0 18 18" fill="none" xmlns="http://www.w3.org/2000/svg">
<path d="M4.5 0C3.51 0 2.7 0.81 2.7 1.8V3.6H1.8C0.81 3.6 0 4.41 0 5.4V16.2H1.8V17.1C1.8 17.595 2.205 18 2.7 18H3.6C4.095 18 4.5 17.595 4.5 17.1V16.2H13.5V17.1C13.5 17.595 13.905 18 14.4 18H15.3C15.795 18 16.2 17.595 16.2 17.1V16.2H18V5.4C18 4.92261 17.8104 4.46477 17.4728 4.12721C17.1352 3.78964 16.6774 3.6 16.2 3.6H15.3V1.8C15.3 1.32261 15.1104 0.864773 14.7728 0.527208C14.4352 0.189642 13.9774 0 13.5 0H4.5ZM10.8 7.2V5.4H16.2V7.2H10.8ZM10.8 10.8V9H16.2V10.8H10.8ZM4.5 1.8H13.5V3.6H4.5V1.8ZM4.5 5.4V9H6.3L3.6 14.4V10.8H1.8L4.5 5.4Z" fill="#333333"/>
</svg>
