<svg width="31" height="22" viewBox="0 0 31 22" fill="none" xmlns="http://www.w3.org/2000/svg">
<path d="M4.14977 7.31233C4.14964 6.22459 4.41988 5.15388 4.9362 4.19649C5.45252 3.2391 6.19872 2.42507 7.10768 1.82761C8.01665 1.23015 9.05986 0.867991 10.1435 0.773718C11.2272 0.679446 12.3172 0.856012 13.3157 1.28754C14.3142 1.71906 15.1898 2.39201 15.8636 3.24585C16.5375 4.09969 16.9886 5.10766 17.1763 6.17908C17.364 7.2505 17.2825 8.35178 16.939 9.38386C16.5955 10.4159 16.0008 11.3465 15.2085 12.0917C16.7023 12.8169 17.9993 13.8916 18.9896 15.2246C19.9799 16.5576 20.6343 18.1096 20.8973 19.7492C20.9262 19.9317 20.9189 20.118 20.8758 20.2977C20.8327 20.4773 20.7547 20.6467 20.6461 20.7962C20.5376 20.9456 20.4006 21.0723 20.2431 21.1688C20.0856 21.2654 19.9107 21.33 19.7282 21.3589C19.5458 21.3878 19.3594 21.3805 19.1797 21.3374C19.0001 21.2943 18.8307 21.2163 18.6812 21.1077C18.5318 20.9992 18.4051 20.8622 18.3086 20.7048C18.212 20.5473 18.1475 20.3723 18.1185 20.1898C17.8373 18.4279 16.9371 16.824 15.5797 15.666C14.2223 14.5081 12.4965 13.872 10.7123 13.872C8.92805 13.872 7.20226 14.5081 5.84483 15.666C4.4874 16.824 3.58725 18.4279 3.30602 20.1898C3.27697 20.3723 3.21226 20.5472 3.11559 20.7047C3.01893 20.8621 2.8922 20.999 2.74264 21.1075C2.59308 21.2159 2.42361 21.2939 2.24393 21.3369C2.06424 21.3798 1.87785 21.387 1.6954 21.358C1.51294 21.3289 1.338 21.2642 1.18055 21.1675C1.0231 21.0709 0.886233 20.9441 0.777763 20.7946C0.669292 20.645 0.591342 20.4755 0.548363 20.2959C0.505384 20.1162 0.498217 19.9298 0.527272 19.7473C0.789345 18.1079 1.44339 16.5559 2.4338 15.2234C3.42421 13.8909 4.72172 12.8172 6.21602 12.0936C5.56352 11.4798 5.04359 10.739 4.68823 9.91673C4.33287 9.09445 4.14963 8.20812 4.14977 7.31233ZM21.0248 4.49983C22.1142 4.50059 23.1799 4.81757 24.0927 5.4123C25.0054 6.00702 25.7259 6.85392 26.1666 7.85017C26.6074 8.84643 26.7495 9.94921 26.5756 11.0246C26.4018 12.1001 25.9195 13.1019 25.1873 13.9086C26.3292 14.4743 27.3438 15.2668 28.1691 16.2378C28.9944 17.2089 29.613 18.3379 29.9873 19.5561C30.0616 19.7925 30.0721 20.0443 30.0176 20.286C29.9631 20.5278 29.8457 20.7508 29.6771 20.9324C29.5086 21.1141 29.295 21.2479 29.0581 21.3204C28.8211 21.3928 28.5692 21.4012 28.3279 21.3448C28.0867 21.289 27.8644 21.1705 27.6837 21.0013C27.5029 20.8321 27.3701 20.6181 27.2985 20.3811C26.962 19.2942 26.3494 18.3132 25.5207 17.5337C24.6919 16.7542 23.6752 16.2029 22.5698 15.9336C22.2627 15.8595 21.9896 15.6841 21.7943 15.4358C21.5991 15.1875 21.4931 14.8807 21.4935 14.5648V13.9048C21.4934 13.643 21.5663 13.3864 21.7041 13.1638C21.8419 12.9411 22.0391 12.7614 22.2735 12.6448C22.842 12.3631 23.2984 11.8975 23.5688 11.3236C23.8393 10.7497 23.9077 10.1013 23.763 9.48356C23.6184 8.86586 23.2691 8.31521 22.772 7.92105C22.2749 7.52689 21.6592 7.31237 21.0248 7.31233C20.6518 7.31233 20.2941 7.16417 20.0304 6.90045C19.7667 6.63673 19.6185 6.27904 19.6185 5.90608C19.6185 5.53312 19.7667 5.17544 20.0304 4.91171C20.2941 4.64799 20.6518 4.49983 21.0248 4.49983ZM10.7123 3.56233C10.2129 3.55104 9.71628 3.63963 9.2516 3.8229C8.78692 4.00618 8.36355 4.28044 8.00632 4.62959C7.6491 4.97874 7.36523 5.39574 7.17138 5.8561C6.97754 6.31647 6.87762 6.81092 6.87749 7.31044C6.87737 7.80995 6.97704 8.30445 7.17066 8.76492C7.36427 9.22538 7.64793 9.64252 8.00498 9.99185C8.36203 10.3412 8.78527 10.6156 9.24986 10.7992C9.71444 10.9827 10.211 11.0715 10.7104 11.0605C11.6902 11.0388 12.6226 10.6344 13.308 9.93388C13.9933 9.23336 14.3772 8.29235 14.3775 7.31231C14.3777 6.33227 13.9943 5.39107 13.3093 4.6902C12.6242 3.98933 11.6921 3.58449 10.7123 3.56233Z" fill="#333333"/>
</svg>
