<svg width="14" height="12" viewBox="0 0 14 12" fill="none" xmlns="http://www.w3.org/2000/svg">
<path fill-rule="evenodd" clip-rule="evenodd" d="M1.76087 1.40515C2.42443 0.741795 3.32429 0.369141 4.26256 0.369141C5.20084 0.369141 6.1007 0.741795 6.76426 1.40515C6.894 1.53443 7.06102 1.69531 7.2653 1.8878C7.46912 1.69531 7.6359 1.53443 7.76564 1.40515C8.42642 0.747476 9.32005 0.377149 10.2523 0.374652C11.1846 0.372155 12.0802 0.73769 12.7445 1.39182C13.4088 2.04595 13.7881 2.93581 13.8 3.86803C13.8119 4.80025 13.4554 5.69948 12.8079 6.37032L7.76493 11.4133C7.63222 11.546 7.45225 11.6205 7.26459 11.6205C7.07694 11.6205 6.89697 11.546 6.76426 11.4133L1.72124 6.37103C1.07444 5.70396 0.715971 4.80925 0.723253 3.88012C0.730536 2.95099 1.10369 2.062 1.76087 1.40515Z" fill="#A20BA2"/>
</svg>
