<svg width="14" height="12" viewBox="0 0 14 12" fill="none" xmlns="http://www.w3.org/2000/svg">
<path fill-rule="evenodd" clip-rule="evenodd" d="M12.0141 6.09146C12.5144 5.58319 12.7924 4.89696 12.7868 4.18373C12.7813 3.47051 12.4926 2.78871 11.9843 2.28832C11.7327 2.04056 11.4347 1.84479 11.1073 1.71219C10.78 1.57959 10.4298 1.51277 10.0766 1.51553C9.36338 1.5211 8.68158 1.80978 8.18119 2.31804C8.04532 2.45392 7.87264 2.6207 7.66316 2.81838L7.08073 3.36684L6.4983 2.81838C6.28835 2.62023 6.11544 2.45345 5.97956 2.31804C5.47523 1.81372 4.79122 1.53039 4.07799 1.53039C3.36477 1.53039 2.68075 1.81372 2.17642 2.31804C1.13753 3.35764 1.1255 5.03841 2.13821 6.08297L7.08073 11.0255L12.0141 6.09146ZM1.57559 1.71792C1.90418 1.38925 2.2943 1.12852 2.72367 0.950639C3.15303 0.772756 3.61324 0.6812 4.07799 0.6812C4.54275 0.6812 5.00295 0.772756 5.43232 0.950639C5.86169 1.12852 6.2518 1.38925 6.58039 1.71792C6.70919 1.84719 6.87597 2.00807 7.08073 2.20057C7.28455 2.00807 7.45133 1.84696 7.58107 1.71721C8.23959 1.04856 9.13675 0.668891 10.0752 0.661724C11.0137 0.654558 11.9165 1.02048 12.5852 1.679C13.2538 2.33751 13.6335 3.23468 13.6407 4.17313C13.6478 5.11158 13.2819 6.01444 12.6234 6.68309L7.58107 11.7261C7.44836 11.8588 7.26839 11.9333 7.08073 11.9333C6.89308 11.9333 6.71311 11.8588 6.58039 11.7261L1.53667 6.68238C0.889868 6.01531 0.5314 5.1206 0.538683 4.19147C0.545966 3.26234 0.918414 2.37336 1.57559 1.71651V1.71792Z" fill="#666666"/>
</svg>
