<svg width="19" height="17" viewBox="0 0 19 17" fill="none" xmlns="http://www.w3.org/2000/svg">
<path fill-rule="evenodd" clip-rule="evenodd" d="M16.4409 7.77933C17.1578 7.05114 17.5561 6.06798 17.5481 5.04614C17.5401 4.02429 17.1265 3.04748 16.3983 2.33057C16.0378 1.9756 15.6108 1.69512 15.1419 1.50515C14.6729 1.31518 14.1711 1.21944 13.6651 1.22339C12.6433 1.23138 11.6665 1.64496 10.9496 2.37316C10.7549 2.56783 10.5075 2.80678 10.2074 3.08999L9.37295 3.87578L8.53851 3.08999C8.23771 2.8061 7.98998 2.56715 7.79531 2.37316C7.07276 1.65061 6.09277 1.24469 5.07093 1.24469C4.04909 1.24469 3.0691 1.65061 2.34655 2.37316C0.858127 3.86259 0.840891 6.27063 2.2918 7.76717L9.37295 14.8483L16.4409 7.77933ZM1.48574 1.51336C1.95651 1.04247 2.51543 0.668928 3.13058 0.414076C3.74574 0.159223 4.40507 0.0280506 5.07093 0.0280506C5.73679 0.0280506 6.39612 0.159223 7.01127 0.414076C7.62643 0.668928 8.18535 1.04247 8.65612 1.51336C8.84065 1.69857 9.0796 1.92907 9.37295 2.20485C9.66496 1.92907 9.90391 1.69823 10.0898 1.51235C11.0332 0.554371 12.3186 0.0104159 13.6631 0.00014803C15.0077 -0.0101198 16.3012 0.51414 17.2592 1.4576C18.2171 2.40105 18.7611 3.68642 18.7714 5.03094C18.7816 6.37546 18.2574 7.66899 17.3139 8.62696L10.0898 15.8521C9.89965 16.0422 9.64181 16.149 9.37295 16.149C9.1041 16.149 8.84626 16.0422 8.65612 15.8521L1.42997 8.62595C0.503299 7.67024 -0.0102779 6.38838 0.000155924 5.05722C0.0105897 3.72605 0.544197 2.4524 1.48574 1.51133V1.51336Z" fill="#666666"/>
</svg>
