<svg width="19" height="20" viewBox="0 0 19 20" fill="none" xmlns="http://www.w3.org/2000/svg">
<path fill-rule="evenodd" clip-rule="evenodd" d="M18.8999 8.15033V15.9668C18.8999 18.1943 17.109 20 14.8999 20H4.8999C2.69076 20 0.899902 18.1943 0.899902 15.9668V8.15033C0.899902 6.93937 1.43955 5.7925 2.36976 5.02652L7.36976 0.909348C8.8422 -0.303114 10.9576 -0.303117 12.43 0.909345L17.43 5.02652C18.3603 5.7925 18.8999 6.93937 18.8999 8.15033ZM7.8999 15.25C7.48569 15.25 7.1499 15.5858 7.1499 16C7.1499 16.4142 7.48569 16.75 7.8999 16.75H11.8999C12.3141 16.75 12.6499 16.4142 12.6499 16C12.6499 15.5858 12.3141 15.25 11.8999 15.25H7.8999Z" fill="#A20BA2"/>
</svg>
