<svg width="142" height="79" viewBox="0 0 142 79" fill="none" xmlns="http://www.w3.org/2000/svg">
<path d="M49.092 5.24128C49.092 7.47722 52.6758 9.28981 50.1819 9.28981C47.6881 9.28981 45.6664 7.47722 45.6664 5.24128C45.6664 3.00534 47.6881 1.19275 50.1819 1.19275C52.6758 1.19275 49.092 3.00534 49.092 5.24128Z" fill="#FE964A"/>
<path d="M84.5037 3.28827L85.3965 5.47182L86.8411 7.3368L84.5037 7.01822L82.1663 7.3368L83.6109 5.47182L84.5037 3.28827Z" fill="#FE964A"/>
<path d="M18.2141 42.7112C18.2141 42.7112 23.9669 39.846 25.2719 41.3478C25.9889 42.1728 26.5303 43.1721 25.8882 43.984C25.3932 44.6099 24.6786 44.6897 23.8413 44.5426C22.0682 44.2312 22.095 41.7689 22.8068 40.2439C23.7896 38.1384 29.0062 39.3812 29.0062 39.3812" stroke="#8C167E" stroke-width="1.07961"/>
<circle cx="122.499" cy="39.8407" r="3.14886" fill="#FFEDEC"/>
<path d="M29.8121 72.8639L30.2601 68.9996L33.3835 70.9796L33.7395 67.7379L36.5885 69.7004L37.4758 66.1958" stroke="#2F78EE" stroke-width="0.899673"/>
<path d="M103.275 11.812C103.275 11.812 102.837 9.21033 104.094 8.69178C105.15 8.25615 106.065 10.1827 106.933 9.48421C107.812 8.77674 105.618 7.65594 106.332 6.80975C107.084 5.91918 109.499 6.80975 109.499 6.80975" stroke="#2F78EE" stroke-width="1.07961"/>
<path d="M17.4523 7.91274L29.0168 13.6699L26.1264 17.6115L17.4523 7.91274Z" fill="#2F78EE"/>
<circle cx="119.892" cy="50.5561" r="1.34951" fill="#FFEDEC"/>
<path d="M106.923 68.3204C108.406 68.4697 109.848 66.2135 109.681 67.8677C109.515 69.522 108.177 70.742 106.694 70.5927C105.211 70.4434 104.144 68.9814 104.31 67.3272C104.477 65.6729 105.44 68.1712 106.923 68.3204Z" fill="#2F78EE"/>
<path d="M111.737 20.9474L113.225 24.5866L115.632 27.6949L111.737 27.164L107.841 27.6949L110.249 24.5866L111.737 20.9474Z" fill="#8C167E"/>
<path d="M66.9152 12.7719C69.4818 11.2418 72.6806 11.2418 75.2472 12.7719L79.1857 15.1199C80.114 15.6733 81.1432 16.0362 82.2133 16.1875L86.7104 16.823C89.7414 17.2513 92.2755 19.3448 93.2681 22.2406L94.6091 26.1531C94.9748 27.22 95.5583 28.1991 96.3225 29.0284L99.081 32.0218C101.224 34.3479 101.825 37.7055 100.622 40.6306L99.1276 44.2625C98.6919 45.3213 98.4847 46.4602 98.5194 47.6047L98.6392 51.5568C98.7338 54.6778 97.034 57.5775 94.2645 59.0195L90.4376 61.0121C89.4599 61.5211 88.5959 62.2235 87.898 63.0766L85.1215 66.4704C83.2165 68.799 80.1819 69.8862 77.2316 69.297L72.6743 68.387C71.6226 68.177 70.5398 68.177 69.4881 68.387L64.9308 69.297C61.9805 69.8862 58.9459 68.799 57.0409 66.4704L54.2644 63.0766C53.5664 62.2235 52.7024 61.5211 51.7247 61.012L47.8978 59.0195C45.1284 57.5775 43.4285 54.6778 43.5231 51.5568L43.643 47.6047C43.6777 46.4602 43.4704 45.3213 43.0348 44.2625L41.5404 40.6306C40.3369 37.7055 40.9379 34.3479 43.0814 32.0218L45.8399 29.0284C46.6041 28.1991 47.1876 27.22 47.5532 26.1531L48.8943 22.2406C49.8869 19.3448 52.4209 17.2513 55.452 16.823L59.949 16.1875C61.0191 16.0362 62.0484 15.6733 62.9767 15.1199L66.9152 12.7719Z" fill="url(#paint0_linear_121_17410)"/>
<path d="M61.0812 40.8198L67.7579 47.3513L81.1112 34.2883" stroke="white" stroke-width="5.22523" stroke-linecap="round" stroke-linejoin="round"/>
<defs>
<linearGradient id="paint0_linear_121_17410" x1="91.4202" y1="53.6781" x2="71.0812" y2="37.4069" gradientUnits="userSpaceOnUse">
<stop stop-color="#A20BA2"/>
<stop offset="1" stop-color="#F711F7"/>
</linearGradient>
</defs>
</svg>
