<svg width="25" height="25" viewBox="0 0 25 25" fill="none" xmlns="http://www.w3.org/2000/svg">
<rect width="25" height="25" rx="12.5" fill="#760676"/>
<path d="M12.256 8.348C11.7973 8.348 11.456 8.252 11.232 8.06C11.008 7.85733 10.896 7.564 10.896 7.18C10.896 6.78533 11.008 6.492 11.232 6.3C11.456 6.09733 11.7973 5.996 12.256 5.996C12.7147 5.996 13.056 6.09733 13.28 6.3C13.504 6.492 13.616 6.78533 13.616 7.18C13.616 7.564 13.504 7.85733 13.28 8.06C13.056 8.252 12.7147 8.348 12.256 8.348ZM13.344 9.5V17.5H11.152V9.5H13.344Z" fill="white"/>
</svg>
