<svg width="27" height="32" viewBox="0 0 27 32" fill="none" xmlns="http://www.w3.org/2000/svg">
<path d="M14.8333 2V7.6C14.8333 10.6928 17.2211 13.2 20.1667 13.2L25.5 13.2M1.5 7.6L1.5 24.4C1.5 27.4928 3.88782 30 6.83333 30H20.1667C23.1122 30 25.5 27.4928 25.5 24.4V15.5196C25.5 14.0344 24.9381 12.61 23.9379 11.5598L16.3954 3.6402C15.3952 2.59 14.0387 2 12.6242 2L6.83333 2C3.88781 2 1.5 4.50721 1.5 7.6Z" stroke="#505050" stroke-width="2.64294" stroke-linejoin="round"/>
<path d="M8.14844 18.3872H9.30078V22.1935C9.30078 22.6911 9.25911 23.0739 9.17578 23.3419C9.0638 23.6919 8.86068 23.9735 8.56641 24.1868C8.27214 24.3974 7.88411 24.5026 7.40234 24.5026C6.83724 24.5026 6.40234 24.3372 6.09766 24.0063C5.79297 23.6728 5.63932 23.1847 5.63672 22.5421L6.72656 22.4108C6.73958 22.7554 6.78776 22.9987 6.87109 23.1409C6.99609 23.3569 7.1862 23.4649 7.44141 23.4649C7.69922 23.4649 7.88151 23.3884 7.98828 23.2353C8.09505 23.0794 8.14844 22.7581 8.14844 22.2714V18.3872Z" fill="#505050"/>
<path d="M10.5352 24.4001V18.3872H12.3906C13.0937 18.3872 13.5521 18.4173 13.7656 18.4774C14.0937 18.5677 14.3685 18.7646 14.5898 19.0681C14.8112 19.3688 14.9219 19.7585 14.9219 20.237C14.9219 20.6062 14.8581 20.9165 14.7305 21.1681C14.6029 21.4196 14.4401 21.6179 14.2422 21.7628C14.0469 21.905 13.8477 21.9993 13.6445 22.0458C13.3685 22.1032 12.9687 22.1319 12.4453 22.1319H11.6914V24.4001H10.5352ZM11.6914 19.4044V21.1106H12.3242C12.7799 21.1106 13.0846 21.0792 13.2383 21.0163C13.3919 20.9534 13.5117 20.855 13.5977 20.721C13.6862 20.587 13.7305 20.4312 13.7305 20.2534C13.7305 20.0347 13.6693 19.8542 13.5469 19.712C13.4245 19.5698 13.2695 19.481 13.082 19.4454C12.944 19.4181 12.6667 19.4044 12.25 19.4044H11.6914Z" fill="#505050"/>
<path d="M18.5352 22.1894V21.1763H21.0273V23.5716C20.7852 23.8177 20.4336 24.0351 19.9727 24.2237C19.5143 24.4097 19.0495 24.5026 18.5781 24.5026C17.9792 24.5026 17.457 24.3714 17.0117 24.1089C16.5664 23.8437 16.2318 23.4663 16.0078 22.9769C15.7839 22.4847 15.6719 21.9501 15.6719 21.3731C15.6719 20.747 15.7969 20.1905 16.0469 19.7038C16.2969 19.2171 16.6628 18.8438 17.1445 18.5841C17.5117 18.3845 17.9687 18.2847 18.5156 18.2847C19.2266 18.2847 19.7812 18.4419 20.1797 18.7563C20.5807 19.0681 20.8385 19.5001 20.9531 20.0524L19.8047 20.278C19.724 19.9827 19.5716 19.7503 19.3477 19.5808C19.1263 19.4085 18.849 19.3224 18.5156 19.3224C18.0104 19.3224 17.6081 19.4905 17.3086 19.8269C17.0117 20.1632 16.8633 20.6622 16.8633 21.3239C16.8633 22.0376 17.0143 22.5735 17.3164 22.9317C17.6185 23.2872 18.0143 23.4649 18.5039 23.4649C18.7461 23.4649 18.9883 23.4157 19.2305 23.3173C19.4753 23.2161 19.6849 23.0944 19.8594 22.9522V22.1894H18.5352Z" fill="#505050"/>
</svg>
