<svg width="23" height="19" viewBox="0 0 23 19" fill="none" xmlns="http://www.w3.org/2000/svg">
<path fill-rule="evenodd" clip-rule="evenodd" d="M5.78045 5.66636C6.4618 5.66636 7.11524 5.3957 7.59702 4.91391C8.07881 4.43213 8.34947 3.77869 8.34947 3.09734C8.34947 2.41599 8.07881 1.76255 7.59702 1.28077C7.11524 0.798984 6.4618 0.52832 5.78045 0.52832C5.0991 0.52832 4.44566 0.798984 3.96387 1.28077C3.48209 1.76255 3.21143 2.41599 3.21143 3.09734C3.21143 3.77869 3.48209 4.43213 3.96387 4.91391C4.44566 5.3957 5.0991 5.66636 5.78045 5.66636ZM5.78045 4.38185C6.12112 4.38185 6.44784 4.24652 6.68873 4.00563C6.92963 3.76474 7.06496 3.43802 7.06496 3.09734C7.06496 2.75667 6.92963 2.42995 6.68873 2.18906C6.44784 1.94816 6.12112 1.81283 5.78045 1.81283C5.43977 1.81283 5.11305 1.94816 4.87216 2.18906C4.63127 2.42995 4.49594 2.75667 4.49594 3.09734C4.49594 3.43802 4.63127 3.76474 4.87216 4.00563C5.11305 4.24652 5.43977 4.38185 5.78045 4.38185Z" fill="#505050"/>
<path d="M7.87985 9.13694L4.21899 7.59424L7.87985 9.13822V9.13694ZM7.87985 9.13694L7.99032 9.18382L7.87985 9.01683V9.13694Z" fill="#505050"/>
<path fill-rule="evenodd" clip-rule="evenodd" d="M2.45338 6.94445C2.81497 6.67021 3.42447 6.30862 4.21894 6.30862H7.42765C8.30304 6.30862 8.95622 6.76976 9.27413 7.02666C9.64664 7.32788 9.96905 7.69011 10.2182 7.99968C10.6158 8.49164 10.9825 9.04976 11.1919 9.36639L11.1964 9.37282C11.2465 9.44989 11.2859 9.5094 11.3146 9.55136C11.4475 9.74725 11.5394 9.95984 11.5927 10.1769C11.6396 9.92773 11.7378 9.68431 11.8913 9.46145C11.9547 9.36897 12.0311 9.2555 12.1206 9.12105L12.1277 9.10949C12.3717 8.74212 12.7012 8.24694 13.0268 7.84168C13.258 7.55331 13.5612 7.2142 13.9279 6.93353C14.2767 6.66635 14.8707 6.30862 15.6479 6.30862H18.7493C19.6055 6.30862 20.2419 6.76462 20.5476 7.01446C20.9086 7.30925 21.2194 7.66314 21.4603 7.96499C21.8437 8.44604 22.1989 8.99068 22.3999 9.2996L22.4025 9.3041L22.4044 9.30667L22.4083 9.31245C22.4554 9.38523 22.4922 9.44133 22.5187 9.48072C22.712 9.76899 22.8214 10.1053 22.8346 10.4522C22.8478 10.799 22.7644 11.1427 22.5935 11.4448C22.4227 11.747 22.1712 11.9957 21.8672 12.1632C21.5632 12.3307 21.2187 12.4104 20.872 12.3933C21.057 13.0632 21.2349 13.6721 21.3633 14.1011C21.565 14.7774 21.1597 15.5083 20.4436 15.6579C18.1251 16.1428 16.4847 16.1274 13.9928 15.6515C13.8226 15.6184 13.6612 15.5497 13.5194 15.45C13.3775 15.3503 13.2582 15.2218 13.1693 15.0729C13.0805 14.924 13.024 14.758 13.0037 14.5858C12.9833 14.4136 12.9995 14.239 13.0512 14.0735C13.1835 13.6477 13.3647 13.051 13.5496 12.3921C13.131 12.419 12.7155 12.3038 12.3704 12.0652C11.9941 11.8067 11.7258 11.4191 11.6164 10.9759C11.5708 11.2282 11.4753 11.4689 11.3355 11.6839C11.1956 11.8988 11.0143 12.0837 10.8021 12.2276C10.5686 12.3861 10.3033 12.4913 10.0247 12.5359C9.74617 12.5805 9.46122 12.5634 9.19 12.4858L9.19385 12.5179L9.62224 16.3715C9.6785 16.8707 9.53752 17.3722 9.22937 17.769C8.92121 18.1658 8.47025 18.4266 7.97261 18.4957C7.47497 18.5648 6.97002 18.4368 6.5654 18.139C6.16078 17.8411 5.8885 17.397 5.8066 16.9013L5.78026 16.744L5.75457 16.9013C5.67601 17.4001 5.40481 17.8481 4.99931 18.1489C4.59381 18.4498 4.08642 18.5794 3.5863 18.51C3.08618 18.4406 2.6333 18.1776 2.3251 17.7777C2.0169 17.3777 1.878 16.8728 1.93829 16.3715L2.27098 13.3818L2.30245 12.5231C1.92553 12.598 1.53481 12.5585 1.18051 12.4097C0.826207 12.2608 0.524508 12.0094 0.314183 11.6878C0.103858 11.3662 -0.00548324 10.989 0.00021166 10.6047C0.00590656 10.2205 0.126377 9.84671 0.346141 9.53146C0.409082 9.44026 0.484654 9.32893 0.572857 9.19748L0.59084 9.17115C0.842605 8.79543 1.18364 8.28805 1.52083 7.87379C1.76103 7.57836 2.07509 7.23154 2.45338 6.94445ZM4.21958 7.59313C3.82267 7.59313 3.48484 7.77489 3.22923 7.96821C2.96847 8.16602 2.72955 8.42421 2.51825 8.68368C2.2241 9.04591 1.91517 9.50384 1.65634 9.88919L1.64735 9.90204C1.55808 10.035 1.4733 10.1615 1.40072 10.2662C1.34933 10.3352 1.31233 10.4138 1.29192 10.4974C1.2715 10.581 1.26809 10.6678 1.28188 10.7528C1.29568 10.8377 1.32639 10.919 1.37221 10.9918C1.41803 11.0646 1.47801 11.1275 1.5486 11.1767C1.61919 11.2259 1.69894 11.2604 1.78313 11.2782C1.86731 11.296 1.95421 11.2967 2.03867 11.2802C2.12312 11.2637 2.2034 11.2305 2.27476 11.1824C2.34611 11.1343 2.40707 11.0724 2.45402 11.0003L3.71028 9.19556L3.55356 13.4762L3.21574 16.5141C3.19846 16.6798 3.24625 16.8457 3.34901 16.9768C3.45178 17.1079 3.60147 17.194 3.76649 17.2168C3.93152 17.2397 4.09896 17.1975 4.23347 17.0992C4.36798 17.0009 4.45903 16.8542 4.4874 16.69L5.12581 12.8609L5.78476 12.7145L6.43729 12.8673L7.07441 16.69C7.10256 16.8545 7.19359 17.0015 7.32823 17.1C7.46287 17.1985 7.63057 17.2408 7.79581 17.2178C7.96106 17.1949 8.11088 17.1085 8.21359 16.977C8.31629 16.8456 8.36381 16.6793 8.34608 16.5134L7.91769 12.6599C7.91418 12.6287 7.90838 12.5978 7.90035 12.5674L7.8798 12.4871V9.13711L7.99091 9.18399L9.05705 10.7961L9.18936 10.9939C9.285 11.1348 9.43272 11.232 9.60002 11.264C9.76732 11.2961 9.9405 11.2604 10.0814 11.1647C10.2224 11.0691 10.3196 10.9213 10.3516 10.754C10.3837 10.5867 10.3479 10.4136 10.2523 10.2726L10.1277 10.0851L7.99091 9.18399L7.99027 9.18271L10.1264 10.0832L10.1238 10.0799C9.91254 9.75881 9.57471 9.24629 9.21954 8.80571C8.99539 8.52825 8.73913 8.24502 8.4681 8.02601C8.21505 7.82177 7.85282 7.59313 7.42829 7.59313H4.21958ZM14.6781 7.91233C14.926 7.72286 15.2574 7.54175 15.6485 7.54175H18.75C19.1687 7.54175 19.5239 7.76975 19.7686 7.96949C20.0319 8.18465 20.2805 8.4621 20.4969 8.73377C20.8412 9.16473 21.1681 9.66633 21.3723 9.97975L21.3742 9.98296C21.4205 10.0536 21.4629 10.1185 21.4963 10.1679C21.591 10.3085 21.6261 10.4809 21.5938 10.6473C21.5615 10.8137 21.4643 10.9604 21.3238 11.0552C21.1833 11.15 21.0109 11.1851 20.8445 11.1527C20.6781 11.1204 20.5313 11.0233 20.4365 10.8828C20.3551 10.7631 20.2341 10.6758 20.0948 10.6364C19.9555 10.5969 19.8068 10.6077 19.6746 10.667C19.5425 10.7262 19.4354 10.83 19.3722 10.9602C19.3089 11.0904 19.2935 11.2388 19.3286 11.3792C19.6222 12.5456 19.9709 13.7459 20.1822 14.4531C18.0467 14.8988 16.5747 14.8885 14.2285 14.4415L14.2291 14.4396C14.5523 13.4063 14.847 12.3644 15.1129 11.315C15.1476 11.1747 15.1319 11.0267 15.0687 10.8968C15.0054 10.7669 14.8985 10.6634 14.7666 10.6043C14.6348 10.5451 14.4864 10.5342 14.3473 10.5734C14.2082 10.6125 14.0873 10.6993 14.0056 10.8185L13.9594 10.8866C13.8627 11.0249 13.7152 11.1194 13.549 11.1493C13.3829 11.1793 13.2117 11.1423 13.0728 11.0465C12.9338 10.9506 12.8385 10.8037 12.8075 10.6378C12.7765 10.4718 12.8124 10.3004 12.9074 10.1609C12.9774 10.0594 13.0596 9.93608 13.1456 9.80634L13.1489 9.80184C13.4 9.42356 13.7012 8.97141 13.9883 8.61432C14.1925 8.35998 14.4244 8.10693 14.6781 7.91233ZM17.3409 5.66636C18.0222 5.66636 18.6756 5.3957 19.1574 4.91391C19.6392 4.43213 19.9099 3.77869 19.9099 3.09734C19.9099 2.41599 19.6392 1.76255 19.1574 1.28077C18.6756 0.798984 18.0222 0.52832 17.3409 0.52832C16.6595 0.52832 16.0061 0.798984 15.5243 1.28077C15.0425 1.76255 14.7718 2.41599 14.7718 3.09734C14.7718 3.77869 15.0425 4.43213 15.5243 4.91391C16.0061 5.3957 16.6595 5.66636 17.3409 5.66636ZM17.3409 4.38185C17.6815 4.38185 18.0083 4.24652 18.2491 4.00563C18.49 3.76473 18.6254 3.43801 18.6254 3.09734C18.6254 2.75667 18.49 2.42995 18.2491 2.18906C18.0083 1.94816 17.6815 1.81283 17.3409 1.81283C17.0002 1.81283 16.6735 1.94816 16.4326 2.18906C16.1917 2.42995 16.0564 2.75667 16.0564 3.09734C16.0564 3.43801 16.1917 3.76473 16.4326 4.00563C16.6735 4.24652 17.0002 4.38185 17.3409 4.38185Z" fill="#505050"/>
<path d="M15.2859 18.5015C15.0546 18.4704 14.8426 18.3564 14.689 18.1808C14.5355 18.0052 14.4509 17.7798 14.4509 17.5465V16.7526C15.158 16.8441 15.8688 16.9028 16.5813 16.9286L16.3437 17.8002C16.2823 18.0253 16.1412 18.2204 15.9468 18.3494C15.7524 18.4784 15.5178 18.5324 15.2865 18.5015M18.3385 17.8002L18.0996 16.9254C18.8124 16.896 19.5237 16.8354 20.2312 16.7437V17.5465C20.2312 17.7798 20.1465 18.0052 19.9929 18.1807C19.8392 18.3563 19.6271 18.4702 19.3958 18.5012C19.1646 18.5322 18.9299 18.4782 18.7355 18.3493C18.541 18.2203 18.4 18.0252 18.3385 17.8002Z" fill="#505050"/>
</svg>
