<svg width="18" height="16" viewBox="0 0 18 16" fill="none" xmlns="http://www.w3.org/2000/svg">
<path d="M8.9864 9.87196V1.31641M8.9864 9.87196C7.6597 9.87196 6.58346 10.9881 6.58346 11.9136C6.58346 13.2747 7.6597 15.3164 8.9864 15.3164C10.3131 15.3164 11.3893 13.2747 11.3893 11.9136C11.3893 10.9881 10.3131 9.87196 8.9864 9.87196ZM3.38194 6.78263V15.3164M2.3473 1.41752L1.72156 1.47741C1.6133 1.4878 1.50836 1.51953 1.41314 1.57068C1.31793 1.62183 1.23444 1.69131 1.16779 1.77488C1.10113 1.85845 1.05271 1.95435 1.02548 2.05672C0.998244 2.1591 0.992774 2.2658 1.0094 2.3703L1.54472 5.72718C1.63514 6.29574 2.13926 6.76941 2.73219 6.76941H4.03088C4.62302 6.76941 5.12713 6.29574 5.21835 5.72718L5.75447 2.3703C5.7711 2.2658 5.76563 2.1591 5.7384 2.05672C5.71116 1.95435 5.66274 1.85845 5.59609 1.77488C5.52943 1.69131 5.44595 1.62183 5.35073 1.57068C5.25552 1.51953 5.15057 1.4878 5.04231 1.47741L4.41817 1.41674C3.7296 1.34979 3.03587 1.34979 2.3473 1.41674M13.7979 9.73041V1.33663C14.7253 1.58552 16.2672 2.5243 16.5225 4.83818L16.981 8.34907C17.061 8.96585 16.9002 9.58107 16.2688 9.68685C15.7407 9.77474 14.9397 9.80352 13.7979 9.73041ZM13.7979 9.73041V15.3164" stroke="#505050" stroke-width="1.2" stroke-linecap="round" stroke-linejoin="round"/>
</svg>
