<svg width="20" height="20" viewBox="0 0 20 20" fill="none" xmlns="http://www.w3.org/2000/svg">
<path d="M14.9999 1.67484L4.99992 1.6665C4.07492 1.6665 3.33325 2.40817 3.33325 3.33317V16.6665C3.33325 17.5915 4.07492 18.3332 4.99992 18.3332H14.9999C15.9249 18.3332 16.6666 17.5915 16.6666 16.6665V3.33317C16.6666 2.40817 15.9249 1.67484 14.9999 1.67484ZM14.9999 16.6665H4.99992L4.99158 3.33317H14.9999V16.6665Z" fill="#333333"/>
<path d="M6.66634 5.83317C7.12658 5.83317 7.49967 5.46007 7.49967 4.99984C7.49967 4.5396 7.12658 4.1665 6.66634 4.1665C6.2061 4.1665 5.83301 4.5396 5.83301 4.99984C5.83301 5.46007 6.2061 5.83317 6.66634 5.83317Z" fill="#333333"/>
<path d="M9.16659 5.83317C9.62682 5.83317 9.99992 5.46007 9.99992 4.99984C9.99992 4.5396 9.62682 4.1665 9.16659 4.1665C8.70635 4.1665 8.33325 4.5396 8.33325 4.99984C8.33325 5.46007 8.70635 5.83317 9.16659 5.83317Z" fill="#333333"/>
<path d="M9.99967 15.8333C12.2997 15.8333 14.1663 13.9667 14.1663 11.6667C14.1663 9.36667 12.2997 7.5 9.99967 7.5C7.69967 7.5 5.83301 9.36667 5.83301 11.6667C5.83301 13.9667 7.69967 15.8333 9.99967 15.8333ZM11.9663 9.7C13.0497 10.7833 13.0497 12.55 11.9663 13.6333C10.883 14.7167 9.11634 14.7167 8.03301 13.6333L11.9663 9.7Z" fill="#333333"/>
</svg>
