<svg width="13" height="16" viewBox="0 0 13 16" fill="none" xmlns="http://www.w3.org/2000/svg">
<path d="M6.5 8.6875C7.63909 8.6875 8.5625 7.76409 8.5625 6.625C8.5625 5.48591 7.63909 4.5625 6.5 4.5625C5.36091 4.5625 4.4375 5.48591 4.4375 6.625C4.4375 7.76409 5.36091 8.6875 6.5 8.6875Z" stroke="#505050" stroke-linecap="round" stroke-linejoin="round"/>
<path d="M6.5 1.125C5.04131 1.125 3.64236 1.70446 2.61091 2.73591C1.57946 3.76736 1 5.16631 1 6.625C1 7.92575 1.27637 8.77687 2.03125 9.71875L6.5 14.875L10.9688 9.71875C11.7236 8.77687 12 7.92575 12 6.625C12 5.16631 11.4205 3.76736 10.3891 2.73591C9.35764 1.70446 7.95869 1.125 6.5 1.125Z" stroke="#505050" stroke-linecap="round" stroke-linejoin="round"/>
</svg>
