<svg width="10" height="13" viewBox="0 0 10 13" fill="none" xmlns="http://www.w3.org/2000/svg">
<path d="M5 6.6875C5.93198 6.6875 6.6875 5.93198 6.6875 5C6.6875 4.06802 5.93198 3.3125 5 3.3125C4.06802 3.3125 3.3125 4.06802 3.3125 5C3.3125 5.93198 4.06802 6.6875 5 6.6875Z" stroke="white" stroke-linecap="round" stroke-linejoin="round"/>
<path d="M5 0.5C3.80653 0.5 2.66193 0.974106 1.81802 1.81802C0.974106 2.66193 0.5 3.80653 0.5 5C0.5 6.06425 0.726125 6.76062 1.34375 7.53125L5 11.75L8.65625 7.53125C9.27388 6.76062 9.5 6.06425 9.5 5C9.5 3.80653 9.02589 2.66193 8.18198 1.81802C7.33807 0.974106 6.19347 0.5 5 0.5Z" stroke="white" stroke-linecap="round" stroke-linejoin="round"/>
</svg>
