<svg width="18" height="21" viewBox="0 0 18 21" fill="none" xmlns="http://www.w3.org/2000/svg">
<path fill-rule="evenodd" clip-rule="evenodd" d="M3 6.09352C3 4.50228 3.63214 2.97622 4.75736 1.85104C5.88258 0.725866 7.4087 0.09375 9 0.09375C10.5913 0.09375 12.1174 0.725866 13.2426 1.85104C14.3679 2.97622 15 4.50228 15 6.09352H16C16.5304 6.09352 17.0391 6.30422 17.4142 6.67928C17.7893 7.05434 18 7.56303 18 8.09344V18.093C18 18.6235 17.7893 19.1321 17.4142 19.5072C17.0391 19.8823 16.5304 20.093 16 20.093H2C1.46957 20.093 0.960859 19.8823 0.585786 19.5072C0.210714 19.1321 0 18.6235 0 18.093V8.09344C0 7.56303 0.210714 7.05434 0.585786 6.67928C0.960859 6.30422 1.46957 6.09352 2 6.09352H3ZM9 2.09367C10.0609 2.09367 11.0783 2.51508 11.8284 3.2652C12.5786 4.01532 13 5.03269 13 6.09352H5C5 5.03269 5.42143 4.01532 6.17157 3.2652C6.92172 2.51508 7.93913 2.09367 9 2.09367ZM11 12.0933C11 12.4443 10.9076 12.7892 10.732 13.0932C10.5565 13.3972 10.304 13.6497 10 13.8252V15.0932C10 15.3584 9.89464 15.6127 9.70711 15.8002C9.51957 15.9878 9.26522 16.0931 9 16.0931C8.73478 16.0931 8.48043 15.9878 8.29289 15.8002C8.10536 15.6127 8 15.3584 8 15.0932V13.8252C7.61874 13.6051 7.32077 13.2653 7.15231 12.8586C6.98384 12.4518 6.95429 12.0009 7.06824 11.5757C7.18219 11.1504 7.43326 10.7747 7.78253 10.5067C8.1318 10.2387 8.55975 10.0934 9 10.0934C9.53043 10.0934 10.0391 10.3041 10.4142 10.6791C10.7893 11.0542 11 11.5629 11 12.0933Z" fill="white"/>
</svg>
