<svg width="43" height="43" viewBox="0 0 43 43" fill="none" xmlns="http://www.w3.org/2000/svg">
<path d="M21.39 0C17.1595 0 13.0239 1.24872 9.50638 3.58826C5.98884 5.9278 3.24717 9.25306 1.62823 13.1436C0.00926711 17.0341 -0.414324 21.3151 0.411011 25.4452C1.23635 29.5755 3.27357 33.3691 6.26499 36.3466C9.25644 39.3243 13.0678 41.3522 17.2171 42.174C21.3663 42.9954 25.6671 42.5737 29.5757 40.9625C33.4843 39.3507 36.8246 36.6217 39.1752 33.1204C41.5255 29.619 42.78 25.5025 42.78 21.2915C42.78 15.6446 40.5265 10.229 36.515 6.23613C32.5036 2.2432 27.063 0 21.39 0ZM34.5295 24.4031C34.5295 24.8289 32.5983 24.8897 32.5983 25.3156C32.5983 25.7414 34.5082 26.3193 34.5082 26.9064C34.5082 27.6241 30.5724 27.7305 30.5724 28.4485C30.5724 29.215 33.5578 28.9777 33.5578 29.8081C33.5578 30.7875 26.0592 30.3312 26.0592 31.3502C26.0592 31.7394 27.0187 31.9007 28.2196 32.0285C28.8796 32.1014 28.7359 32.4238 28.3602 32.6369C26.2609 33.9117 23.8492 34.5864 21.39 34.5864C18.9308 34.5864 16.5191 33.9117 14.4199 32.6369C14.0471 32.4088 13.9004 32.0863 14.5605 32.0285C15.7614 31.9007 16.7239 31.7243 16.7239 31.3502C16.7239 30.3312 9.22214 30.7875 9.22214 29.8081C9.22214 28.9777 12.2107 29.1997 12.2107 28.4485C12.2107 27.7305 8.27187 27.6241 8.27187 26.9064C8.27187 26.3193 10.1848 25.7505 10.1848 25.3156C10.1848 24.8806 8.25046 24.8319 8.25046 24.4031C8.25046 23.9742 9.66223 23.6974 9.66223 23.3932C9.66223 22.8184 8.02127 23.8647 8.02127 21.2915C8.02127 17.7622 9.42982 14.3775 11.9369 11.8819C14.4441 9.3863 17.8444 7.98429 21.39 7.98429C24.9356 7.98429 28.3361 9.3863 30.8432 11.8819C33.3503 14.3775 34.7587 17.7622 34.7587 21.2915C34.7587 23.8647 33.1179 22.8123 33.1179 23.3932C33.1179 23.6974 34.5295 23.9438 34.5295 24.4031Z" fill="#A20BA2"/>
</svg>
