<svg width="33" height="33" viewBox="0 0 33 33" fill="none" xmlns="http://www.w3.org/2000/svg">
<path d="M16.5 0C13.2366 0 10.0465 0.967704 7.33311 2.78075C4.61972 4.59379 2.50483 7.17072 1.25599 10.1857C0.00714854 13.2007 -0.319605 16.5183 0.317049 19.719C0.953707 22.9197 2.52519 25.8596 4.83274 28.167C7.1403 30.4746 10.0804 32.0462 13.281 32.683C16.4817 33.3196 19.7993 32.9928 22.8144 31.7442C25.8294 30.4951 28.4061 28.3802 30.2193 25.6669C32.0323 22.9535 33 19.7633 33 16.5C33 12.1239 31.2617 7.92705 28.1673 4.83273C25.0729 1.73838 20.8761 0 16.5 0ZM26.6356 18.9113C26.6356 19.2413 25.1459 19.2885 25.1459 19.6185C25.1459 19.9485 26.6192 20.3963 26.6192 20.8513C26.6192 21.4075 23.5832 21.49 23.5832 22.0464C23.5832 22.6404 25.8861 22.4564 25.8861 23.1C25.8861 23.859 20.1017 23.5054 20.1017 24.295C20.1017 24.5967 20.8419 24.7217 21.7683 24.8207C22.2774 24.8772 22.1665 25.1271 21.8767 25.2922C20.2573 26.2801 18.397 26.803 16.5 26.803C14.603 26.803 12.7427 26.2801 11.1233 25.2922C10.8358 25.1154 10.7226 24.8655 11.2318 24.8207C12.1581 24.7217 12.9006 24.585 12.9006 24.295C12.9006 23.5054 7.11385 23.859 7.11385 23.1C7.11385 22.4564 9.41916 22.6285 9.41916 22.0464C9.41916 21.49 6.38082 21.4075 6.38082 20.8513C6.38082 20.3963 7.8564 19.9555 7.8564 19.6185C7.8564 19.2814 6.36431 19.2437 6.36431 18.9113C6.36431 18.579 7.45333 18.3645 7.45333 18.1287C7.45333 17.6833 6.18751 18.4941 6.18751 16.5C6.18751 13.7649 7.27405 11.1419 9.208 9.20795C11.142 7.27398 13.765 6.18748 16.5 6.18748C19.235 6.18748 21.8581 7.27398 23.7921 9.20795C25.726 11.1419 26.8124 13.7649 26.8124 16.5C26.8124 18.4941 25.5468 17.6785 25.5468 18.1287C25.5468 18.3645 26.6356 18.5554 26.6356 18.9113Z" fill="#A20BA2"/>
</svg>
