<svg width="65" height="64" viewBox="0 0 65 64" fill="none" xmlns="http://www.w3.org/2000/svg">
<path d="M32.1261 0.107056C25.8179 0.107056 19.6513 1.96903 14.4063 5.45755C9.16122 8.94605 5.07309 13.9044 2.65907 19.7056C0.245019 25.5067 -0.386602 31.8902 0.844064 38.0487C2.07474 44.2073 5.11245 49.8641 9.57299 54.3038C14.0336 58.7439 19.7168 61.7677 25.9037 62.993C32.0907 64.2179 38.5037 63.5892 44.3319 61.1866C50.1599 58.7833 55.1407 54.7141 58.6457 49.4932C62.1503 44.2723 64.0209 38.1341 64.0209 31.855C64.0209 23.4349 60.6607 15.3597 54.6791 9.40581C48.6976 3.45191 40.5852 0.107056 32.1261 0.107056ZM51.7184 36.4947C51.7184 37.1297 48.8388 37.2204 48.8388 37.8553C48.8388 38.4903 51.6868 39.352 51.6868 40.2275C51.6868 41.2977 45.8179 41.4563 45.8179 42.5269C45.8179 43.6699 50.2695 43.3159 50.2695 44.5542C50.2695 46.0146 39.0883 45.3342 39.0883 46.8536C39.0883 47.434 40.5191 47.6745 42.3098 47.8651C43.2939 47.9738 43.0795 48.4545 42.5194 48.7723C39.3891 50.6732 35.793 51.6792 32.1261 51.6792C28.4591 51.6792 24.8631 50.6732 21.7329 48.7723C21.177 48.4321 20.9583 47.9513 21.9425 47.8651C23.7331 47.6745 25.1684 47.4115 25.1684 46.8536C25.1684 45.3342 13.9824 46.0146 13.9824 44.5542C13.9824 43.3159 18.4386 43.647 18.4386 42.5269C18.4386 41.4563 12.5655 41.2977 12.5655 40.2275C12.5655 39.352 15.4178 38.5039 15.4178 37.8553C15.4178 37.2067 12.5335 37.1342 12.5335 36.4947C12.5335 35.8552 14.6386 35.4425 14.6386 34.9889C14.6386 34.1317 12.1918 35.6919 12.1918 31.855C12.1918 26.5924 14.2921 21.5454 18.0305 17.8243C21.7689 14.1031 26.8392 12.0125 32.1261 12.0125C37.4129 12.0125 42.4834 14.1031 46.2218 17.8243C49.9602 21.5454 52.0602 26.5924 52.0602 31.855C52.0602 35.6919 49.6137 34.1227 49.6137 34.9889C49.6137 35.4425 51.7184 35.8099 51.7184 36.4947Z" fill="white"/>
</svg>
