<svg width="19" height="15" viewBox="0 0 19 15" fill="none" xmlns="http://www.w3.org/2000/svg">
<path d="M10.8571 6.57754C10.8571 7.32015 10.5712 8.03234 10.0621 8.55744C9.55312 9.08254 8.86273 9.37754 8.14286 9.37754C7.42298 9.37754 6.73259 9.08254 6.22357 8.55744C5.71454 8.03234 5.42857 7.32015 5.42857 6.57754C5.42857 5.83493 5.71454 5.12274 6.22357 4.59764C6.73259 4.07254 7.42298 3.77754 8.14286 3.77754C8.86273 3.77754 9.55312 4.07254 10.0621 4.59764C10.5712 5.12274 10.8571 5.83493 10.8571 6.57754ZM9.5 6.57754C9.5 6.20624 9.35701 5.85014 9.1025 5.58759C8.84799 5.32504 8.50279 5.17754 8.14286 5.17754C7.78292 5.17754 7.43773 5.32504 7.18321 5.58759C6.9287 5.85014 6.78571 6.20624 6.78571 6.57754C6.78571 6.94884 6.9287 7.30494 7.18321 7.56749C7.43773 7.83004 7.78292 7.97754 8.14286 7.97754C8.50279 7.97754 8.84799 7.83004 9.1025 7.56749C9.35701 7.30494 9.5 6.94884 9.5 6.57754ZM0 2.72754C0 1.76154 0.76 0.977539 1.69643 0.977539H14.5893C15.5257 0.977539 16.2857 1.76154 16.2857 2.72754V10.4275C16.2857 11.3935 15.5257 12.1775 14.5893 12.1775H1.69643C0.76 12.1775 0 11.3935 0 10.4275V2.72754ZM1.69643 2.37754C1.60644 2.37754 1.52015 2.41441 1.45652 2.48005C1.39289 2.54569 1.35714 2.63471 1.35714 2.72754V3.77754H2.03571C2.21568 3.77754 2.38828 3.70379 2.51554 3.57251C2.64279 3.44124 2.71429 3.26319 2.71429 3.07754V2.37754H1.69643ZM1.35714 10.4275C1.35714 10.6207 1.50914 10.7775 1.69643 10.7775H2.71429V10.0775C2.71429 9.89189 2.64279 9.71384 2.51554 9.58256C2.38828 9.45129 2.21568 9.37754 2.03571 9.37754H1.35714V10.4275ZM4.07143 10.0775V10.7775H12.2143V10.0775C12.2143 9.52058 12.4288 8.98644 12.8105 8.59261C13.1923 8.19879 13.7101 7.97754 14.25 7.97754H14.9286V5.17754H14.25C13.7101 5.17754 13.1923 4.95629 12.8105 4.56246C12.4288 4.16864 12.2143 3.63449 12.2143 3.07754V2.37754H4.07143V3.07754C4.07143 3.63449 3.85695 4.16864 3.47518 4.56246C3.09341 4.95629 2.57562 5.17754 2.03571 5.17754H1.35714V7.97754H2.03571C2.57562 7.97754 3.09341 8.19879 3.47518 8.59261C3.85695 8.98644 4.07143 9.52058 4.07143 10.0775ZM13.5714 10.7775H14.5893C14.6793 10.7775 14.7656 10.7407 14.8292 10.675C14.8928 10.6094 14.9286 10.5204 14.9286 10.4275V9.37754H14.25C14.07 9.37754 13.8974 9.45129 13.7702 9.58256C13.6429 9.71384 13.5714 9.89189 13.5714 10.0775V10.7775ZM14.9286 3.77754V2.72754C14.9286 2.63471 14.8928 2.54569 14.8292 2.48005C14.7656 2.41441 14.6793 2.37754 14.5893 2.37754H13.5714V3.07754C13.5714 3.26319 13.6429 3.44124 13.7702 3.57251C13.8974 3.70379 14.07 3.77754 14.25 3.77754H14.9286ZM4.75 14.9775C4.32008 14.9777 3.90115 14.8375 3.55325 14.5769C3.20535 14.3164 2.94634 13.9489 2.81336 13.5271C3.00155 13.5607 3.19471 13.5775 3.39286 13.5775H14.5893C15.3991 13.5775 16.1758 13.2457 16.7485 12.6549C17.3211 12.0642 17.6429 11.263 17.6429 10.4275V3.89654C18.0399 4.04136 18.3837 4.30965 18.6267 4.66445C18.8698 5.01925 19.0002 5.44308 19 5.87754V10.4275C19 11.0251 18.8859 11.6167 18.6643 12.1687C18.4426 12.7208 18.1177 13.2224 17.7081 13.6449C17.2986 14.0674 16.8123 14.4025 16.2772 14.6312C15.7421 14.8598 15.1685 14.9775 14.5893 14.9775H4.75Z" fill="#505050"/>
</svg>
