<svg width="18" height="18" viewBox="0 0 18 18" fill="none" xmlns="http://www.w3.org/2000/svg">
<g clip-path="url(#clip0_489_16294)">
<path d="M6 10.5L6.81169 9.14719C7.29058 8.34904 8.41854 8.27317 9 9C9.58146 9.72683 10.7094 9.65096 11.1883 8.85281L12 7.5M9 13.5V16.5M3 4.5H15C15.8284 4.5 16.5 3.82843 16.5 3C16.5 2.17157 15.8284 1.5 15 1.5H3C2.17157 1.5 1.5 2.17157 1.5 3C1.5 3.82843 2.17157 4.5 3 4.5ZM2.25 4.5H15.75V12C15.75 12.8284 15.0784 13.5 14.25 13.5H3.75C2.92157 13.5 2.25 12.8284 2.25 12V4.5Z" stroke="#686464" stroke-width="1.5" stroke-linecap="round" stroke-linejoin="round"/>
</g>
<defs>
<clipPath id="clip0_489_16294">
<rect width="18" height="18" fill="white"/>
</clipPath>
</defs>
</svg>
