<svg width="18" height="18" viewBox="0 0 18 18" fill="none" xmlns="http://www.w3.org/2000/svg">
<g clip-path="url(#clip0_489_16373)">
<path d="M14.25 1.5H15.75C16.1642 1.5 16.5 1.83579 16.5 2.25V3.75M15.75 2.25C9.79385 7.04352 6.70659 8.3347 1.5 9M13.5 7.5V15C13.5 15.8284 14.1716 16.5 15 16.5C15.8284 16.5 16.5 15.8284 16.5 15V7.5C16.5 6.67157 15.8284 6 15 6C14.1716 6 13.5 6.67157 13.5 7.5ZM1.5 13.5L1.5 15C1.5 15.8284 2.17157 16.5 3 16.5C3.82843 16.5 4.5 15.8284 4.5 15L4.5 13.5C4.5 12.6716 3.82843 12 3 12C2.17157 12 1.5 12.6716 1.5 13.5ZM7.5 10.5V15C7.5 15.8284 8.17157 16.5 9 16.5C9.82843 16.5 10.5 15.8284 10.5 15V10.5C10.5 9.67157 9.82843 9 9 9C8.17157 9 7.5 9.67157 7.5 10.5Z" stroke="#686464" stroke-width="1.5" stroke-linecap="round" stroke-linejoin="round"/>
</g>
<defs>
<clipPath id="clip0_489_16373">
<rect width="18" height="18" fill="white"/>
</clipPath>
</defs>
</svg>
