<svg width="25" height="24" viewBox="0 0 25 24" fill="none" xmlns="http://www.w3.org/2000/svg">
<path d="M20.4497 15.999C20.8639 15.999 21.1997 16.3348 21.1997 16.749V17.999H22.4497C22.8639 17.999 23.1997 18.3348 23.1997 18.749C23.1997 19.1632 22.8639 19.499 22.4497 19.499H21.1997V20.749C21.1997 21.1632 20.8639 21.499 20.4497 21.499C20.0355 21.499 19.6997 21.1632 19.6997 20.749V19.499H18.4497C18.0355 19.499 17.6997 19.1632 17.6997 18.749C17.6997 18.3348 18.0355 17.999 18.4497 17.999H19.6997V16.749C19.6997 16.3348 20.0355 15.999 20.4497 15.999ZM4.69385 3.01074C6.88934 3.25883 9.8306 3.92271 11.9497 5.37891V20.7393C9.83062 19.2832 6.88922 18.6192 4.69385 18.3711C3.59611 18.2469 2.69981 17.3302 2.69971 16.1992V4.93457C2.69971 3.80346 3.59601 2.88677 4.69385 3.01074ZM20.7056 3.01074C21.8034 2.88677 22.6997 3.80346 22.6997 4.93457V14.415C22.0873 14.1475 21.4108 13.999 20.6997 13.999C17.9383 13.999 15.6997 16.2376 15.6997 18.999C15.6997 19.1872 15.7097 19.3729 15.73 19.5557C14.9188 19.875 14.1404 20.2647 13.4497 20.7393V5.37891C15.5688 3.92271 18.5101 3.25883 20.7056 3.01074ZM5.81494 11.5127C5.40575 11.4493 5.02209 11.7296 4.9585 12.1387C4.89525 12.5478 5.17544 12.9315 5.58447 12.9951C6.20367 13.091 6.85777 13.2187 7.51611 13.3848C7.91766 13.486 8.32584 13.2423 8.42725 12.8408C8.52834 12.4394 8.28468 12.0321 7.8833 11.9307C7.17446 11.7518 6.47454 11.6149 5.81494 11.5127ZM5.81494 7.5127C5.40575 7.44932 5.02209 7.72957 4.9585 8.13867C4.89525 8.54779 5.17544 8.93153 5.58447 8.99512C6.8132 9.18541 8.1706 9.49964 9.4292 9.98633C9.81543 10.1356 10.2494 9.94376 10.3989 9.55762C10.5483 9.17134 10.3564 8.73734 9.97021 8.58789C8.58458 8.05206 7.1176 7.71446 5.81494 7.5127Z" fill="#A20BA2"/>
</svg>
