<svg width="22" height="19" viewBox="0 0 22 19" fill="none" xmlns="http://www.w3.org/2000/svg">
<path d="M18.4497 13C18.8639 13 19.1997 13.3358 19.1997 13.75V15H20.4497C20.8639 15 21.1997 15.3358 21.1997 15.75C21.1997 16.1642 20.8639 16.5 20.4497 16.5H19.1997V17.75C19.1997 18.1642 18.8639 18.5 18.4497 18.5C18.0355 18.5 17.6997 18.1642 17.6997 17.75V16.5H16.4497C16.0355 16.5 15.6997 16.1642 15.6997 15.75C15.6997 15.3358 16.0355 15 16.4497 15H17.6997V13.75C17.6997 13.3358 18.0355 13 18.4497 13ZM2.69385 0.0117456C4.88934 0.259835 7.8306 0.923703 9.94971 2.37991V17.7403C7.83062 16.2842 4.88923 15.6202 2.69385 15.3721C1.59612 15.2479 0.699837 14.3312 0.699707 13.2002V1.93557C0.699707 0.804464 1.596 -0.112225 2.69385 0.0117456ZM18.7056 0.0117456C19.8034 -0.112225 20.6997 0.804464 20.6997 1.93557V11.416C20.0872 11.1484 19.4108 11 18.6997 11C15.9383 11 13.6997 13.2386 13.6997 16C13.6997 16.1882 13.7107 16.3739 13.731 16.5567C12.9195 16.8761 12.1407 17.2655 11.4497 17.7403V2.37991C13.5688 0.923703 16.5101 0.259835 18.7056 0.0117456ZM3.81494 8.5137C3.40575 8.45033 3.02209 8.73058 2.9585 9.13968C2.89527 9.54878 3.17545 9.93254 3.58447 9.99612C4.20366 10.092 4.85778 10.2197 5.51611 10.3858C5.91765 10.487 6.32582 10.2433 6.42725 9.84182C6.52833 9.44038 6.28468 9.03307 5.8833 8.93167C5.17446 8.75283 4.47454 8.61586 3.81494 8.5137ZM3.81494 4.5137C3.40575 4.45033 3.02209 4.73058 2.9585 5.13968C2.89527 5.54878 3.17545 5.93254 3.58447 5.99612C4.8132 6.18642 6.1706 6.50064 7.4292 6.98733C7.81542 7.13663 8.24944 6.94474 8.39893 6.55862C8.5483 6.17235 8.35643 5.73835 7.97021 5.58889C6.58458 5.05307 5.1176 4.71547 3.81494 4.5137Z" fill="#787373"/>
</svg>
