<svg width="21" height="18" viewBox="0 0 21 18" fill="none" xmlns="http://www.w3.org/2000/svg">
<path d="M1 2.02832V16.0283C1 16.2935 1.10536 16.5479 1.29289 16.7354C1.48043 16.923 1.73478 17.0283 2 17.0283H7.5L6 11.5283L9.5 10.5283L9 7.02832L13 5.02832L12 3.52832L13.5 1.02832H2C1.73478 1.02832 1.48043 1.13368 1.29289 1.32121C1.10536 1.50875 1 1.7631 1 2.02832ZM20 16.0283V2.02832C20 1.7631 19.8946 1.50875 19.7071 1.32121C19.5196 1.13368 19.2652 1.02832 19 1.02832H17.5L15.5 4.02832L17 6.52832L12.5 8.52832L13 12.5283L9.5 13.5283L10.5 17.0283H19C19.2652 17.0283 19.5196 16.923 19.7071 16.7354C19.8946 16.5479 20 16.2935 20 16.0283Z" stroke="#505050" stroke-width="1.5" stroke-linecap="round" stroke-linejoin="round"/>
<path d="M5.75 6.02832C5.94891 6.02832 6.13968 5.9493 6.28033 5.80865C6.42098 5.668 6.5 5.47723 6.5 5.27832C6.5 5.07941 6.42098 4.88864 6.28033 4.74799C6.13968 4.60734 5.94891 4.52832 5.75 4.52832C5.55109 4.52832 5.36032 4.60734 5.21967 4.74799C5.07902 4.88864 5 5.07941 5 5.27832C5 5.47723 5.07902 5.668 5.21967 5.80865C5.36032 5.9493 5.55109 6.02832 5.75 6.02832Z" stroke="#505050" stroke-width="1.5" stroke-linecap="round" stroke-linejoin="round"/>
</svg>
