<svg width="18" height="21" viewBox="0 0 18 21" fill="none" xmlns="http://www.w3.org/2000/svg">
<path d="M0 3.89261L1.21263 2.68308L18 19.5593L16.7968 20.7783L15.4137 19.3878C15.0916 19.664 14.6842 19.8259 14.2105 19.8259H4.73684C4.23433 19.8259 3.75239 19.6253 3.39706 19.268C3.04173 18.9108 2.84211 18.4264 2.84211 17.9212V6.74975L0 3.89261ZM9.47368 16.0164C8.71991 16.0164 7.99701 15.7154 7.46401 15.1796C6.93101 14.6438 6.63158 13.917 6.63158 13.1593C6.63158 12.4355 6.89684 11.7688 7.34211 11.2545L5.99684 9.92118C5.21053 10.7783 4.73684 11.9117 4.73684 13.1593C4.73684 14.4222 5.2359 15.6334 6.12423 16.5264C7.01256 17.4195 8.2174 17.9212 9.47368 17.9212C10.7147 17.9212 11.8421 17.445 12.6947 16.6545L11.3684 15.3021C10.8474 15.7497 10.1937 16.0164 9.47368 16.0164ZM14.2105 13.1593C14.2105 11.8963 13.7115 10.6851 12.8231 9.7921C11.9348 8.89907 10.73 8.39737 9.47368 8.39737H9.30316L2.95579 2.01642C3.23053 1.29261 3.92211 0.77832 4.73684 0.77832H14.2105C14.713 0.77832 15.195 0.979 15.5503 1.33621C15.9056 1.69342 16.1053 2.17791 16.1053 2.68308V15.2355L14.2105 13.3212V13.1593ZM9.47368 2.68308C8.42211 2.68308 7.57895 3.5307 7.57895 4.58784C7.57895 5.09302 7.77857 5.5775 8.1339 5.93471C8.48924 6.29193 8.97117 6.49261 9.47368 6.49261C9.9762 6.49261 10.4581 6.29193 10.8135 5.93471C11.1688 5.5775 11.3684 5.09302 11.3684 4.58784C11.3684 4.08267 11.1688 3.59819 10.8135 3.24097C10.4581 2.88376 9.9762 2.68308 9.47368 2.68308Z" fill="#505050" fill-opacity="0.88"/>
</svg>
