<svg width="20" height="21" viewBox="0 0 20 21" fill="none" xmlns="http://www.w3.org/2000/svg">
<g clip-path="url(#clip0_249_1978)">
<path d="M0.416748 0.944824L7.98508 8.51316M7.98508 8.51316L19.5834 20.1115M7.98508 8.51316L8.06675 8.44482C9.04108 7.40421 9.58328 6.03205 9.58341 4.60649V1.36149C9.58341 1.91403 9.80291 2.44393 10.1936 2.83463C10.5843 3.22533 11.1142 3.44482 11.6667 3.44482H16.2501V4.69482C16.2501 5.24736 16.0306 5.77726 15.6399 6.16796C15.2492 6.55866 14.7193 6.77816 14.1667 6.77816H13.3334V13.8615M13.3334 18.8615V16.3615M6.25008 9.95732C5.72223 10.4795 5.30315 11.1011 5.01707 11.7863C4.73099 12.4714 4.5836 13.2065 4.58341 13.949V18.4448H4.16675C3.61421 18.4448 3.08431 18.2253 2.69361 17.8346C2.30291 17.4439 2.08341 16.914 2.08341 16.3615V13.0282M6.66675 13.4448H8.75008V13.8615C8.75008 15.1115 8.75008 15.9448 9.37508 17.1948C9.37508 17.1948 10.0001 18.4448 10.8334 18.4448" stroke="#505050" stroke-width="1.5"/>
</g>
<defs>
<clipPath id="clip0_249_1978">
<rect width="20" height="20" fill="white" transform="translate(0 0.52832)"/>
</clipPath>
</defs>
</svg>
