<svg width="22" height="22" viewBox="0 0 22 22" fill="none" xmlns="http://www.w3.org/2000/svg">
<path d="M6.55556 12.1111V16.5556M15.4444 3.22222V3.77778C15.4444 4.36715 15.6786 4.93238 16.0953 5.34913C16.5121 5.76587 17.0773 6 17.6667 6C18.256 6 18.8213 6.23413 19.238 6.65087C19.6548 7.06762 19.8889 7.63285 19.8889 8.22222V8.77778M1 1L21 21M16.5556 12.1111H19.8889C20.1836 12.1111 20.4662 12.2282 20.6746 12.4365C20.8829 12.6449 21 12.9275 21 13.2222V15.4444C21 15.7556 20.8722 16.0367 20.6667 16.2378M16.5556 16.5556H2.11111C1.81643 16.5556 1.53381 16.4385 1.32544 16.2301C1.11706 16.0217 1 15.7391 1 15.4444V13.2222C1 12.9275 1.11706 12.6449 1.32544 12.4365C1.53381 12.2282 1.81643 12.1111 2.11111 12.1111H12.1111" stroke="#505050" stroke-width="1.5" stroke-linecap="round" stroke-linejoin="round"/>
</svg>
