<svg width="16" height="18" viewBox="0 0 16 18" fill="none" xmlns="http://www.w3.org/2000/svg">
<path d="M1.61553 10.6781L1.12499 10.2613L1.12499 10.2613L1.61553 10.6781ZM2.37016 8.92595L1.73057 8.8535L1.73057 8.8535L2.37016 8.92595ZM13.811 8.92595L14.4506 8.8535L14.4506 8.8535L13.811 8.92595ZM14.5656 10.6781L15.0562 10.2613L15.0562 10.2613L14.5656 10.6781ZM13.515 6.31305L12.8754 6.3855L12.8754 6.3855L13.515 6.31305ZM2.66615 6.31305L3.30575 6.3855L3.30575 6.3855L2.66615 6.31305ZM11.2681 15.2982C11.3928 14.9653 11.2241 14.5943 10.8912 14.4695C10.5583 14.3448 10.1873 14.5135 10.0626 14.8464L10.6653 15.0723L11.2681 15.2982ZM6.11859 14.8464C5.99384 14.5135 5.62284 14.3448 5.28995 14.4695C4.95707 14.5943 4.78834 14.9653 4.9131 15.2982L5.51585 15.0723L6.11859 14.8464ZM13.3859 13.3558V12.7121H2.79532V13.3558V13.9995H13.3859V13.3558ZM13.515 6.31305L12.8754 6.3855L13.1714 8.99841L13.811 8.92595L14.4506 8.8535L14.1546 6.24059L13.515 6.31305ZM2.37016 8.92595L3.00976 8.9984L3.30575 6.3855L2.66615 6.31305L2.02656 6.24059L1.73057 8.8535L2.37016 8.92595ZM1.61553 10.6781L2.10608 11.0949C2.60787 10.5043 2.92201 9.77302 3.00976 8.9984L2.37016 8.92595L1.73057 8.8535C1.67122 9.37738 1.45908 9.8681 1.12499 10.2613L1.61553 10.6781ZM13.811 8.92595L13.1714 8.9984C13.2592 9.77303 13.5733 10.5043 14.0751 11.0949L14.5656 10.6781L15.0562 10.2613C14.7221 9.8681 14.51 9.37738 14.4506 8.8535L13.811 8.92595ZM2.79532 13.3558V12.7121C2.03423 12.7121 1.55011 11.7493 2.10608 11.0949L1.61553 10.6781L1.12499 10.2613C-0.092874 11.6948 0.862669 13.9995 2.79532 13.9995V13.3558ZM13.3859 13.3558V13.9995C15.3185 13.9995 16.2741 11.6948 15.0562 10.2613L14.5656 10.6781L14.0751 11.0949C14.6311 11.7493 14.1469 12.7121 13.3859 12.7121V13.3558ZM13.515 6.31305L14.1546 6.24059C13.7983 3.09522 11.2042 0.696646 8.09059 0.696646V1.34033V1.98402C10.5196 1.98402 12.5895 3.86099 12.8754 6.3855L13.515 6.31305ZM2.66615 6.31305L3.30575 6.3855C3.59173 3.86099 5.66155 1.98402 8.09059 1.98402V1.34033V0.696646C4.97697 0.696646 2.38287 3.09522 2.02656 6.24059L2.66615 6.31305ZM10.6653 15.0723L10.0626 14.8464C9.78561 15.5854 9.02143 16.1451 8.09059 16.1451V16.7888V17.4325C9.53715 17.4325 10.7955 16.5592 11.2681 15.2982L10.6653 15.0723ZM8.09059 16.7888V16.1451C7.15975 16.1451 6.39556 15.5854 6.11859 14.8464L5.51585 15.0723L4.9131 15.2982C5.3857 16.5592 6.64403 17.4325 8.09059 17.4325V16.7888Z" fill="white"/>
</svg>
