<svg width="15" height="18" viewBox="0 0 15 18" fill="none" xmlns="http://www.w3.org/2000/svg">
<path d="M1.06502 10.6033L0.577509 10.1891L0.577509 10.1891L1.06502 10.6033ZM1.81498 8.86196L1.17934 8.78995L1.81498 8.86196ZM13.1851 8.86196L13.8207 8.78996L13.8207 8.78996L13.1851 8.86196ZM13.9351 10.6033L14.4226 10.1891L14.4226 10.1891L13.9351 10.6033ZM12.8909 6.26521L12.2553 6.33722L12.2553 6.33722L12.8909 6.26521ZM2.10914 6.26521L2.74479 6.33722L2.74479 6.33722L2.10914 6.26521ZM10.6579 15.1948C10.7819 14.864 10.6142 14.4953 10.2834 14.3713C9.95253 14.2473 9.58383 14.415 9.45985 14.7458L10.0589 14.9703L10.6579 15.1948ZM5.54024 14.7458C5.41625 14.415 5.04755 14.2473 4.71672 14.3713C4.38589 14.4953 4.21821 14.864 4.3422 15.1948L4.94122 14.9703L5.54024 14.7458ZM12.7626 13.2644V12.6247H2.23751V13.2644V13.9041H12.7626V13.2644ZM12.8909 6.26521L12.2553 6.33722L12.5495 8.93397L13.1851 8.86196L13.8207 8.78996L13.5266 6.19321L12.8909 6.26521ZM1.81498 8.86196L2.45062 8.93397L2.74479 6.33722L2.10914 6.26521L1.4735 6.19321L1.17934 8.78995L1.81498 8.86196ZM1.06502 10.6033L1.55253 11.0175C2.05122 10.4305 2.36342 9.7038 2.45062 8.93397L1.81498 8.86196L1.17934 8.78995C1.12037 9.3106 0.909539 9.79829 0.577509 10.1891L1.06502 10.6033ZM13.1851 8.86196L12.5495 8.93397C12.6367 9.7038 12.9489 10.4305 13.4476 11.0175L13.9351 10.6033L14.4226 10.1891C14.0905 9.79829 13.8797 9.3106 13.8207 8.78996L13.1851 8.86196ZM2.23751 13.2644V12.6247C1.48113 12.6247 0.999999 11.6678 1.55253 11.0175L1.06502 10.6033L0.577509 10.1891C-0.632824 11.6137 0.316812 13.9041 2.23751 13.9041V13.2644ZM12.7626 13.2644V13.9041C14.6833 13.9041 15.6329 11.6137 14.4226 10.1891L13.9351 10.6033L13.4476 11.0175C14.0001 11.6678 13.519 12.6247 12.7626 12.6247V13.2644ZM12.8909 6.26521L13.5266 6.19321C13.1725 3.06728 10.5944 0.683536 7.50004 0.683536V1.32324V1.96295C9.91406 1.96295 11.9711 3.82831 12.2553 6.33722L12.8909 6.26521ZM2.10914 6.26521L2.74479 6.33722C3.02899 3.82831 5.08602 1.96295 7.50004 1.96295V1.32324V0.683536C4.40568 0.683536 1.82761 3.06728 1.4735 6.19321L2.10914 6.26521ZM10.0589 14.9703L9.45985 14.7458C9.18459 15.4803 8.42513 16.0365 7.50004 16.0365V16.6762V17.3159C8.93766 17.3159 10.1882 16.448 10.6579 15.1948L10.0589 14.9703ZM7.50004 16.6762V16.0365C6.57496 16.0365 5.8155 15.4803 5.54024 14.7458L4.94122 14.9703L4.3422 15.1948C4.81187 16.448 6.06243 17.3159 7.50004 17.3159V16.6762Z" fill="white"/>
</svg>
