<svg width="22" height="12" viewBox="0 0 22 12" fill="none" xmlns="http://www.w3.org/2000/svg">
<path d="M7.951 7.61738L10.549 6.11738M10.549 7.61738L7.951 6.11738M9.25 5.36738V8.36738M3.201 7.61738L5.799 6.11738M5.799 7.61738L3.201 6.11738M4.5 5.36738V8.36738M12.75 2.61738H3C2.40326 2.61738 1.83097 2.85443 1.40901 3.27639C0.987053 3.69834 0.75 4.27064 0.75 4.86738V8.86738C0.75 9.46411 0.987053 10.0364 1.40901 10.4584C1.83097 10.8803 2.40326 11.1174 3 11.1174H17.5C18.0967 11.1174 18.669 10.8803 19.091 10.4584C19.5129 10.0364 19.75 9.46411 19.75 8.86738V7.36738M17.818 1.17838C18.0994 0.901287 18.4792 0.747225 18.8741 0.750038C19.269 0.75285 19.6466 0.912308 19.924 1.19338C20.2054 1.4708 20.365 1.84864 20.3678 2.24377C20.3707 2.6389 20.2164 3.01897 19.939 3.30038L16.13 7.10938C15.7126 7.52728 15.1962 7.83277 14.629 7.99738L12.5 8.61738L13.12 6.48938C13.2847 5.92167 13.5906 5.40494 14.009 4.98738L17.818 1.17838Z" stroke="white" stroke-width="1.5" stroke-linecap="round" stroke-linejoin="round"/>
</svg>
