<svg width="21" height="21" viewBox="0 0 21 21" fill="none" xmlns="http://www.w3.org/2000/svg">
<path d="M19.7533 0.77832V19.5283M6.73917 6.36582C7.20251 6.54749 7.70001 6.58332 8.12417 6.46582C8.54751 6.34915 8.86251 6.08832 8.99917 5.74082C9.13501 5.39415 9.08251 4.98915 8.85084 4.61499C8.62001 4.23999 8.23001 3.92832 7.76751 3.74665C7.30417 3.56499 6.80667 3.52832 6.38251 3.64582C5.95917 3.76249 5.64417 4.02332 5.50751 4.37082C5.37167 4.71832 5.42417 5.12332 5.65584 5.49749C5.88667 5.87165 6.27667 6.18415 6.73917 6.36582ZM11.7567 5.74082C11.8242 5.91332 11.9367 6.06582 12.0867 6.18999C12.2367 6.31415 12.4217 6.40832 12.6317 6.46582C12.8417 6.52415 13.0717 6.54499 13.3092 6.52749C13.5467 6.51082 13.7867 6.45499 14.0167 6.36499C14.2458 6.27499 14.4583 6.15249 14.645 6.00332C14.8317 5.85415 14.9858 5.68249 15.1 5.49749C15.2142 5.31165 15.2858 5.11749 15.3117 4.92415C15.3377 4.73725 15.3157 4.54679 15.2475 4.37082C15.1778 4.19552 15.0645 4.04092 14.9183 3.92165C14.7579 3.79216 14.5719 3.69815 14.3725 3.64582C14.1519 3.58673 13.9227 3.56587 13.695 3.58415C13.4575 3.60082 13.2175 3.65665 12.9883 3.74665C12.7621 3.83597 12.5502 3.9578 12.3592 4.10832C12.18 4.24978 12.0264 4.42086 11.905 4.61415C11.7947 4.78817 11.7226 4.98357 11.6933 5.18749C11.6683 5.38082 11.6892 5.56915 11.7567 5.74082Z" stroke="#505050" stroke-width="1.5" stroke-linecap="round" stroke-linejoin="round"/>
<path d="M16.8093 1.77415C16.4571 1.92468 16.0714 1.9799 15.6911 1.93426C15.3108 1.88862 14.9492 1.74374 14.6426 1.51415C14.0686 1.08967 13.3675 0.872747 12.654 0.89894C11.9406 0.925133 11.2573 1.19289 10.7159 1.65832L10.3784 1.94832L10.0393 1.65832C9.49796 1.19289 8.8146 0.925133 8.10118 0.89894C7.38776 0.872747 6.68661 1.08967 6.11262 1.51415C5.80601 1.74374 5.4444 1.88862 5.06409 1.93426C4.68379 1.9799 4.29817 1.92468 3.94595 1.77415L1.00345 0.77832C0.985717 1.84574 1.03638 2.91321 1.15512 3.97415C1.29311 4.97822 1.67794 5.9324 2.27516 6.75127C2.87237 7.57013 3.66333 8.22811 4.57721 8.66631C5.49109 9.10451 6.49938 9.30924 7.51179 9.26218C8.52421 9.21512 9.50916 8.91774 10.3784 8.39665C11.2477 8.91755 12.2326 9.21478 13.2449 9.26175C14.2572 9.30871 15.2653 9.10394 16.1791 8.66576C17.0929 8.22758 17.8837 7.56966 18.4809 6.75091C19.0781 5.93215 19.4629 4.9781 19.6009 3.97415C19.7209 2.91332 19.7718 1.84582 19.7534 0.77832L16.8093 1.77415Z" stroke="#505050" stroke-width="1.5" stroke-linecap="round" stroke-linejoin="round"/>
</svg>
