<svg width="27" height="29" viewBox="0 0 27 29" fill="none" xmlns="http://www.w3.org/2000/svg">
<path d="M6.83337 22.5007V19.1673M6.83337 19.1673V17.1673C6.83337 16.5393 6.83337 16.2247 7.03871 16.0287C7.24404 15.834 7.57337 15.834 8.23337 15.834H9.16671C10.1334 15.834 10.9174 16.5807 10.9174 17.5007C10.9174 18.4207 10.1334 19.1673 9.16671 19.1673H6.83337ZM25.5 15.834H23.7507C22.6507 15.834 22.1 15.834 21.7587 16.1593C21.4174 16.4847 21.4174 17.0087 21.4174 18.0567V19.1673M21.4174 19.1673V22.5007M21.4174 19.1673H24.3334M18.5 19.1673C18.5 21.0073 16.9334 22.5007 15 22.5007C14.564 22.5007 14.3467 22.5007 14.1827 22.4113C13.7947 22.198 13.8334 21.7647 13.8334 21.39V16.9447C13.8334 16.57 13.7934 16.1367 14.1827 15.9233C14.3454 15.834 14.564 15.834 15 15.834C16.9334 15.834 18.5 17.3273 18.5 19.1673Z" stroke="#505050" stroke-width="1.5" stroke-linecap="round" stroke-linejoin="round"/>
<path d="M17.5 27.8337H11.8027C7.456 27.8337 5.28 27.8337 3.77067 26.7697C3.34113 26.4684 2.95719 26.1069 2.63067 25.6963C1.5 24.275 1.5 22.2297 1.5 18.1363V14.743C1.5 10.7923 1.5 8.81632 2.12533 7.23899C3.13067 4.70166 5.256 2.70166 7.952 1.75499C9.62667 1.16699 11.724 1.16699 15.924 1.16699C18.3213 1.16699 19.5213 1.16699 20.4787 1.50299C22.0187 2.04433 23.2333 3.18699 23.808 4.63633C24.1667 5.53766 24.1667 6.66699 24.1667 8.92432V11.8337" stroke="#505050" stroke-width="1.5" stroke-linecap="round" stroke-linejoin="round"/>
<path d="M1.5 14.5003C1.5 13.3217 1.96821 12.1914 2.80162 11.3579C3.63503 10.5245 4.76538 10.0563 5.944 10.0563C6.832 10.0563 7.87867 10.211 8.74133 9.98032C9.11828 9.87888 9.46193 9.68013 9.73784 9.40398C10.0137 9.12784 10.2122 8.78402 10.3133 8.40699C10.544 7.54432 10.3893 6.49766 10.3893 5.60966C10.3897 4.43127 10.858 3.30126 11.6914 2.46814C12.5248 1.63501 13.6549 1.16699 14.8333 1.16699" stroke="#505050" stroke-width="1.5" stroke-linecap="round" stroke-linejoin="round"/>
</svg>
