<svg width="21" height="21" viewBox="0 0 21 21" fill="none" xmlns="http://www.w3.org/2000/svg">
<path d="M16.0882 20.5283V6.7188H17.2059C17.9469 6.7188 18.6576 6.46795 19.1816 6.02143C19.7056 5.57492 20 4.96931 20 4.33784V2.90927H13.8529C13.1119 2.90927 12.4012 2.65842 11.8772 2.21191C11.3532 1.76539 11.0588 1.15979 11.0588 0.52832V4.23689C11.0586 5.29321 10.7525 6.33315 10.1676 7.2645C9.58272 8.19584 8.73714 8.98979 7.70588 9.57594C6.67462 10.1621 5.82905 10.956 5.24416 11.8874C4.65927 12.8187 4.35315 13.8587 4.35294 14.915V20.0521H3.79412C3.05307 20.0521 2.34238 19.8013 1.81838 19.3548C1.29438 18.9082 1 18.3026 1 17.6712V13.8617M7.14706 14.3378H9.94118V14.814C9.94118 16.2426 9.94118 17.195 10.7794 18.6236C10.7794 18.6236 11.6176 20.0521 12.7353 20.0521" stroke="#505050" stroke-width="1.5"/>
</svg>
