<svg width="20" height="20" viewBox="0 0 20 20" fill="none" xmlns="http://www.w3.org/2000/svg">
<path d="M18.8721 9.5852C18.0436 5.8395 16.7968 3.84028 14.9471 3.29419C14.5584 3.18013 14.1551 3.12315 13.7499 3.12505C13.2143 3.12505 12.7479 3.25551 12.2546 3.3938C11.66 3.56059 10.9846 3.75005 9.99988 3.75005C9.01511 3.75005 8.33933 3.56098 7.74363 3.39419C7.24988 3.25551 6.78386 3.12505 6.24988 3.12505C5.8309 3.12357 5.41376 3.18037 5.01042 3.2938C3.17058 3.83755 1.92449 5.83598 1.08386 9.58286C0.179955 13.6149 0.624877 16.1606 2.33152 16.7512C2.56545 16.8337 2.8116 16.8762 3.05964 16.877C4.22878 16.877 5.16628 15.9032 5.80691 15.1059C6.53074 14.2036 7.378 13.7457 9.99988 13.7457C12.3417 13.7457 13.3108 14.0633 14.1479 15.1059C14.6741 15.7614 15.1714 16.22 15.6675 16.5086C16.3272 16.8922 16.9866 16.9774 17.6268 16.7575C18.6354 16.4133 19.2136 15.5036 19.3456 14.0528C19.446 12.9403 19.2913 11.479 18.8721 9.5852ZM8.12488 9.37505H6.87488V10.625C6.87488 10.7908 6.80903 10.9498 6.69182 11.067C6.57461 11.1842 6.41564 11.25 6.24988 11.25C6.08412 11.25 5.92515 11.1842 5.80794 11.067C5.69073 10.9498 5.62488 10.7908 5.62488 10.625V9.37505H4.37488C4.20912 9.37505 4.05015 9.3092 3.93294 9.19199C3.81573 9.07478 3.74988 8.91581 3.74988 8.75005C3.74988 8.58429 3.81573 8.42531 3.93294 8.3081C4.05015 8.19089 4.20912 8.12505 4.37488 8.12505H5.62488V6.87505C5.62488 6.70929 5.69073 6.55031 5.80794 6.4331C5.92515 6.31589 6.08412 6.25005 6.24988 6.25005C6.41564 6.25005 6.57461 6.31589 6.69182 6.4331C6.80903 6.55031 6.87488 6.70929 6.87488 6.87505V8.12505H8.12488C8.29064 8.12505 8.44961 8.19089 8.56682 8.3081C8.68403 8.42531 8.74988 8.58429 8.74988 8.75005C8.74988 8.91581 8.68403 9.07478 8.56682 9.19199C8.44961 9.3092 8.29064 9.37505 8.12488 9.37505ZM11.4061 9.5313C11.2516 9.5313 11.1006 9.48548 10.9721 9.39963C10.8436 9.31379 10.7435 9.19177 10.6843 9.04902C10.6252 8.90626 10.6097 8.74918 10.6399 8.59763C10.67 8.44608 10.7444 8.30688 10.8537 8.19762C10.963 8.08836 11.1022 8.01395 11.2537 7.98381C11.4053 7.95366 11.5623 7.96913 11.7051 8.02826C11.8479 8.0874 11.9699 8.18753 12.0557 8.31601C12.1416 8.44448 12.1874 8.59553 12.1874 8.75005C12.1874 8.95725 12.1051 9.15596 11.9586 9.30247C11.812 9.44899 11.6133 9.5313 11.4061 9.5313ZM13.1249 11.25C12.9703 11.25 12.8192 11.2042 12.6906 11.1182C12.5621 11.0323 12.462 10.9102 12.4029 10.7673C12.3438 10.6244 12.3285 10.4673 12.3588 10.3157C12.3891 10.1641 12.4637 10.0249 12.5731 9.91568C12.6826 9.8065 12.822 9.73224 12.9737 9.70232C13.1253 9.6724 13.2825 9.68815 13.4252 9.74758C13.5679 9.80701 13.6898 9.90745 13.7754 10.0362C13.861 10.1649 13.9065 10.3161 13.9061 10.4707C13.9056 10.6776 13.8231 10.8758 13.6766 11.0219C13.5302 11.168 13.3317 11.25 13.1249 11.25ZM13.1249 7.81255C12.9704 7.81255 12.8193 7.76673 12.6908 7.68088C12.5624 7.59504 12.4622 7.47302 12.4031 7.33027C12.344 7.18751 12.3285 7.03043 12.3586 6.87888C12.3888 6.72733 12.4632 6.58813 12.5725 6.47887C12.6817 6.36961 12.8209 6.2952 12.9725 6.26506C13.124 6.23491 13.2811 6.25038 13.4238 6.30951C13.5666 6.36865 13.6886 6.46878 13.7745 6.59726C13.8603 6.72573 13.9061 6.87678 13.9061 7.0313C13.9061 7.2385 13.8238 7.43721 13.6773 7.58372C13.5308 7.73024 13.3321 7.81255 13.1249 7.81255ZM14.8436 9.5313C14.6891 9.5313 14.5381 9.48548 14.4096 9.39963C14.2811 9.31379 14.181 9.19177 14.1218 9.04902C14.0627 8.90626 14.0472 8.74918 14.0774 8.59763C14.1075 8.44608 14.1819 8.30688 14.2912 8.19762C14.4005 8.08836 14.5397 8.01395 14.6912 7.98381C14.8428 7.95366 14.9998 7.96913 15.1426 8.02826C15.2854 8.0874 15.4074 8.18753 15.4932 8.31601C15.5791 8.44448 15.6249 8.59553 15.6249 8.75005C15.6249 8.95725 15.5426 9.15596 15.3961 9.30247C15.2495 9.44899 15.0508 9.5313 14.8436 9.5313Z" fill="#333333"/>
</svg>
