<svg width="20" height="20" viewBox="0 0 20 20" fill="none" xmlns="http://www.w3.org/2000/svg">
<path fill-rule="evenodd" clip-rule="evenodd" d="M5.86182 5.41667C5.86182 4.3116 6.3008 3.25179 7.08221 2.47039C7.86361 1.68899 8.92341 1.25 10.0285 1.25C11.1336 1.25 12.1934 1.68899 12.9748 2.47039C13.7562 3.25179 14.1951 4.3116 14.1951 5.41667V8.75C14.1951 9.85507 13.7562 10.9149 12.9748 11.6963C12.1934 12.4777 11.1336 12.9167 10.0285 12.9167C8.92341 12.9167 7.86361 12.4777 7.08221 11.6963C6.3008 10.9149 5.86182 9.85507 5.86182 8.75V5.41667ZM12.5285 5.41667V8.75C12.5285 9.41304 12.2651 10.0489 11.7962 10.5178C11.3274 10.9866 10.6915 11.25 10.0285 11.25C9.36544 11.25 8.72956 10.9866 8.26072 10.5178C7.79188 10.0489 7.52848 9.41304 7.52848 8.75V5.41667C7.52848 4.75363 7.79188 4.11774 8.26072 3.6489C8.72956 3.18006 9.36544 2.91667 10.0285 2.91667C10.6915 2.91667 11.3274 3.18006 11.7962 3.6489C12.2651 4.11774 12.5285 4.75363 12.5285 5.41667Z" fill="#333333"/>
<path d="M10.0284 13.7501C9.80741 13.7501 9.59544 13.8379 9.43916 13.9942C9.28288 14.1505 9.19509 14.3624 9.19509 14.5834V17.9168C9.19509 18.1378 9.28288 18.3497 9.43916 18.506C9.59544 18.6623 9.80741 18.7501 10.0284 18.7501C10.2494 18.7501 10.4614 18.6623 10.6177 18.506C10.774 18.3497 10.8618 18.1378 10.8618 17.9168V14.5834C10.8618 14.3624 10.774 14.1505 10.6177 13.9942C10.4614 13.8379 10.2494 13.7501 10.0284 13.7501ZM6.45342 13.7001C6.49085 13.5972 6.54817 13.5027 6.62211 13.422C6.69606 13.3413 6.78517 13.2759 6.88438 13.2297C6.98358 13.1834 7.09093 13.1571 7.20029 13.1523C7.30965 13.1475 7.41888 13.1643 7.52175 13.2018C7.62462 13.2392 7.71911 13.2965 7.79983 13.3705C7.88054 13.4444 7.9459 13.5335 7.99218 13.6327C8.03845 13.7319 8.06473 13.8393 8.06952 13.9486C8.07431 14.058 8.05751 14.1672 8.02008 14.2701L6.88008 17.4026C6.84266 17.5055 6.78534 17.6 6.71139 17.6807C6.63745 17.7614 6.54833 17.8268 6.44913 17.873C6.34992 17.9193 6.24258 17.9456 6.13321 17.9504C6.02385 17.9552 5.91462 17.9384 5.81175 17.9009C5.70888 17.8635 5.61439 17.8062 5.53368 17.7322C5.45296 17.6583 5.3876 17.5692 5.34133 17.47C5.29505 17.3708 5.26877 17.2634 5.26398 17.1541C5.25919 17.0447 5.27599 16.9355 5.31342 16.8326L6.45342 13.7001ZM12.4784 13.2018C12.3755 13.2392 12.281 13.2965 12.2003 13.3704C12.1196 13.4444 12.0542 13.5335 12.0079 13.6327C11.9616 13.7319 11.9354 13.8393 11.9306 13.9486C11.9258 14.058 11.9426 14.1672 11.9801 14.2701L13.1209 17.4026C13.1568 17.5074 13.2132 17.604 13.2869 17.6868C13.3605 17.7696 13.45 17.8368 13.5499 17.8846C13.6499 17.9324 13.7584 17.9598 13.869 17.9651C13.9797 17.9705 14.0903 17.9537 14.1944 17.9158C14.2985 17.8779 14.394 17.8197 14.4754 17.7444C14.5567 17.6692 14.6222 17.5785 14.668 17.4776C14.7139 17.3767 14.7391 17.2677 14.7423 17.157C14.7456 17.0462 14.7267 16.936 14.6868 16.8326L13.5468 13.6993C13.4711 13.4916 13.316 13.3226 13.1156 13.2293C12.9153 13.136 12.6861 13.1261 12.4784 13.2018Z" fill="#333333"/>
</svg>
