<svg width="21" height="21" viewBox="0 0 21 21" fill="none" xmlns="http://www.w3.org/2000/svg">
<path d="M16.2 17.15V20M16.2 14.3C16.2 13.35 15.25 12.4 13.35 12.4H12.4C11.6442 12.4 10.9193 12.0997 10.3848 11.5653C9.85032 11.0308 9.55005 10.3059 9.55005 9.55V7.175C9.55005 6.54511 9.80027 5.94102 10.2457 5.49562C10.6911 5.05022 11.2952 4.8 11.925 4.8H12.4M20 14.3C20 10.025 18.1 9.075 16.2 8.6C18.1 8.125 20 7.65 20 4.8C20 1.95 17.625 1 16.2 1M20 17.15V20" stroke="#333333" stroke-width="1.5" stroke-linecap="round" stroke-linejoin="round"/>
<path d="M11.83 17.1499H1.57C1.2552 17.1499 1 17.4051 1 17.7199V19.4299C1 19.7447 1.2552 19.9999 1.57 19.9999H11.83C12.1448 19.9999 12.4 19.7447 12.4 19.4299V17.7199C12.4 17.4051 12.1448 17.1499 11.83 17.1499Z" stroke="#333333" stroke-width="1.5"/>
</svg>
