<svg width="20" height="20" viewBox="0 0 20 20" fill="none" xmlns="http://www.w3.org/2000/svg">
<path d="M2.50007 8.125C2.50007 7.95924 2.56592 7.80027 2.68313 7.68306C2.80034 7.56585 2.95931 7.5 3.12507 7.5H4.37507C4.54083 7.5 4.69981 7.56585 4.81702 7.68306C4.93423 7.80027 5.00007 7.95924 5.00007 8.125C5.00007 8.29076 4.93423 8.44973 4.81702 8.56694C4.69981 8.68415 4.54083 8.75 4.37507 8.75H3.12507C2.95931 8.75 2.80034 8.68415 2.68313 8.56694C2.56592 8.44973 2.50007 8.29076 2.50007 8.125ZM5.58054 4.58984C5.69782 4.70712 5.85688 4.773 6.02273 4.773C6.18858 4.773 6.34764 4.70712 6.46492 4.58984C6.58219 4.47257 6.64808 4.31351 6.64808 4.14766C6.64808 3.9818 6.58219 3.82274 6.46492 3.70547L5.58054 2.82187C5.46238 2.70961 5.30504 2.64795 5.14206 2.65004C4.97908 2.65212 4.82337 2.71779 4.70812 2.83304C4.59287 2.9483 4.5272 3.10401 4.52511 3.26699C4.52302 3.42996 4.58469 3.58731 4.69695 3.70547L5.58054 4.58984ZM10.0001 3.125C10.1658 3.125 10.3248 3.05915 10.442 2.94194C10.5592 2.82473 10.6251 2.66576 10.6251 2.5V1.25C10.6251 1.08424 10.5592 0.925268 10.442 0.808058C10.3248 0.690848 10.1658 0.625 10.0001 0.625C9.83431 0.625 9.67534 0.690848 9.55813 0.808058C9.44092 0.925268 9.37507 1.08424 9.37507 1.25V2.5C9.37507 2.66576 9.44092 2.82473 9.55813 2.94194C9.67534 3.05915 9.83431 3.125 10.0001 3.125ZM13.9774 4.77266C14.0595 4.77272 14.1408 4.75661 14.2167 4.72524C14.2926 4.69387 14.3615 4.64787 14.4196 4.58984L15.3032 3.70547C15.4155 3.58731 15.4771 3.42996 15.475 3.26699C15.4729 3.10401 15.4073 2.9483 15.292 2.83304C15.1768 2.71779 15.0211 2.65212 14.8581 2.65004C14.6951 2.64795 14.5378 2.70961 14.4196 2.82187L13.5352 3.70547C13.4477 3.79288 13.3881 3.90429 13.364 4.02559C13.3398 4.14689 13.3522 4.27264 13.3995 4.3869C13.4469 4.50116 13.5271 4.59881 13.6299 4.66748C13.7328 4.73615 13.8537 4.77275 13.9774 4.77266ZM15.0001 8.125C15.0001 8.29076 15.0659 8.44973 15.1831 8.56694C15.3003 8.68415 15.4593 8.75 15.6251 8.75H16.8751C17.0408 8.75 17.1998 8.68415 17.317 8.56694C17.4342 8.44973 17.5001 8.29076 17.5001 8.125C17.5001 7.95924 17.4342 7.80027 17.317 7.68306C17.1998 7.56585 17.0408 7.5 16.8751 7.5H15.6251C15.4593 7.5 15.3003 7.56585 15.1831 7.68306C15.0659 7.80027 15.0001 7.95924 15.0001 8.125ZM6.87507 8.75C7.04083 8.75 7.19981 8.68415 7.31702 8.56694C7.43423 8.44973 7.50007 8.29076 7.50007 8.125C7.50007 7.46196 7.76347 6.82607 8.23231 6.35723C8.70115 5.88839 9.33703 5.625 10.0001 5.625C10.6631 5.625 11.299 5.88839 11.7678 6.35723C12.2367 6.82607 12.5001 7.46196 12.5001 8.125C12.5001 8.29076 12.5659 8.44973 12.6831 8.56694C12.8003 8.68415 12.9593 8.75 13.1251 8.75C13.2908 8.75 13.4498 8.68415 13.567 8.56694C13.6842 8.44973 13.7501 8.29076 13.7501 8.125C13.7501 7.13044 13.355 6.17661 12.6517 5.47335C11.9485 4.77009 10.9946 4.375 10.0001 4.375C9.00551 4.375 8.05168 4.77009 7.34842 5.47335C6.64516 6.17661 6.25007 7.13044 6.25007 8.125C6.25007 8.29076 6.31592 8.44973 6.43313 8.56694C6.55034 8.68415 6.70931 8.75 6.87507 8.75ZM11.1876 10.625H8.81257C8.74121 10.625 8.67199 10.6494 8.61642 10.6941C8.56084 10.7389 8.52227 10.8014 8.5071 10.8711L8.01726 13.125H11.9829L11.493 10.8711C11.4779 10.8014 11.4393 10.7389 11.3837 10.6941C11.3282 10.6494 11.2589 10.625 11.1876 10.625ZM2.48054 14.5312L1.3282 16.5672C1.26222 16.6837 1.23541 16.8184 1.25173 16.9513C1.26804 17.0842 1.32662 17.2084 1.41882 17.3055C1.47964 17.368 1.55257 17.4176 1.63317 17.451C1.71376 17.4844 1.80032 17.5011 1.88757 17.5H5.53523C5.60659 17.5 5.67581 17.4756 5.73139 17.4309C5.78696 17.3861 5.82553 17.3236 5.8407 17.2539L6.4657 14.375H2.75242C2.69735 14.3748 2.64321 14.3891 2.59546 14.4166C2.54772 14.444 2.50808 14.4836 2.48054 14.5312ZM18.6688 16.5625L17.5196 14.5312C17.4921 14.4836 17.4524 14.444 17.4047 14.4166C17.3569 14.3891 17.3028 14.3748 17.2477 14.375H13.5337L14.1587 17.2539C14.1738 17.3236 14.2124 17.3861 14.268 17.4309C14.3236 17.4756 14.3928 17.5 14.4641 17.5H18.1063C18.1936 17.5011 18.2801 17.4844 18.3607 17.451C18.4413 17.4176 18.5143 17.368 18.5751 17.3055C18.6683 17.2091 18.728 17.0853 18.7455 16.9523C18.7629 16.8194 18.7371 16.6844 18.6719 16.5672L18.6688 16.5625ZM16.4602 12.6562L15.4899 10.9375C15.4352 10.8408 15.3557 10.7604 15.2595 10.7047C15.1634 10.6489 15.0542 10.6198 14.943 10.6203H13.1063C13.0596 10.6203 13.0135 10.6307 12.9714 10.6509C12.9293 10.671 12.8922 10.7003 12.8629 10.7367C12.8336 10.773 12.8128 10.8155 12.8021 10.8609C12.7914 10.9063 12.7909 10.9536 12.8009 10.9992L13.2618 13.1203H16.1876C16.2419 13.1202 16.2953 13.1059 16.3424 13.0789C16.3896 13.0518 16.4289 13.013 16.4564 12.9661C16.4839 12.9193 16.4987 12.866 16.4994 12.8117C16.5001 12.7574 16.4866 12.7038 16.4602 12.6562ZM6.89382 10.625H5.05476C4.94364 10.6245 4.83439 10.6536 4.73826 10.7093C4.64214 10.7651 4.56261 10.8455 4.50789 10.9422L3.53992 12.6562C3.5124 12.7039 3.49796 12.758 3.49805 12.813C3.49814 12.868 3.51275 12.9221 3.54042 12.9696C3.56809 13.0172 3.60783 13.0566 3.65561 13.0839C3.7034 13.1112 3.75755 13.1254 3.81257 13.125H6.73836L7.19929 11.0039C7.20921 10.9583 7.20879 10.911 7.19804 10.8656C7.1873 10.8202 7.16652 10.7777 7.13722 10.7414C7.10791 10.705 7.07084 10.6757 7.02872 10.6556C6.9866 10.6354 6.94051 10.625 6.89382 10.625ZM12.2548 14.375H7.74539L7.14851 17.1211C7.13859 17.1667 7.13902 17.214 7.14976 17.2594C7.1605 17.3048 7.18129 17.3473 7.21059 17.3836C7.23989 17.42 7.27696 17.4493 7.31908 17.4694C7.3612 17.4896 7.4073 17.5 7.45398 17.5H12.5462C12.5929 17.5 12.6389 17.4896 12.6811 17.4694C12.7232 17.4493 12.7603 17.42 12.7896 17.3836C12.8189 17.3473 12.8396 17.3048 12.8504 17.2594C12.8611 17.214 12.8616 17.1667 12.8516 17.1211L12.2548 14.375Z" fill="#333333"/>
</svg>
