<svg width="13" height="13" viewBox="0 0 13 13" fill="none" xmlns="http://www.w3.org/2000/svg">
<path d="M5.00309 1.17929C5.49359 0.145968 6.9108 0.145966 7.40129 1.17928L8.249 2.96513C8.44378 3.37546 8.82028 3.65987 9.25581 3.72567L11.1513 4.01204C12.2481 4.17774 12.6861 5.5791 11.8924 6.38343L10.5208 7.77351C10.2057 8.09291 10.0618 8.55309 10.1362 9.00409L10.46 10.9669C10.6474 12.1026 9.50084 12.9687 8.51985 12.4325L6.82444 11.5058C6.43489 11.2929 5.9695 11.2929 5.57995 11.5058L3.88454 12.4325C2.90355 12.9687 1.757 12.1027 1.94435 10.9669L2.26815 9.00409C2.34255 8.55309 2.19873 8.09291 1.88358 7.77351L0.511964 6.38343C-0.281676 5.5791 0.156263 4.17774 1.25305 4.01204L3.14857 3.72567C3.58411 3.65987 3.96061 3.37546 4.15539 2.96513L5.00309 1.17929Z" fill="#FFF714"/>
</svg>
