<svg width="13" height="13" viewBox="0 0 13 13" fill="none" xmlns="http://www.w3.org/2000/svg">
<path d="M5.68315 1.17929C6.17364 0.145968 7.59085 0.145966 8.08135 1.17928L8.92905 2.96513C9.12383 3.37546 9.50033 3.65987 9.93587 3.72567L11.8314 4.01204C12.9282 4.17774 13.3661 5.5791 12.5725 6.38343L11.2009 7.77351C10.8857 8.09291 10.7419 8.55309 10.8163 9.00409L11.1401 10.9669C11.3274 12.1026 10.1809 12.9687 9.19991 12.4325L7.50449 11.5058C7.11494 11.2929 6.64956 11.2929 6.26 11.5058L4.56459 12.4325C3.5836 12.9687 2.43705 12.1027 2.62441 10.9669L2.9482 9.00409C3.0226 8.55309 2.87879 8.09291 2.56363 7.77351L1.19202 6.38343C0.398378 5.5791 0.836317 4.17774 1.9331 4.01204L3.82863 3.72567C4.26416 3.65987 4.64067 3.37546 4.83544 2.96513L5.68315 1.17929Z" fill="#666666" fill-opacity="0.4"/>
</svg>
