<svg width="142" height="79" viewBox="0 0 142 79" fill="none" xmlns="http://www.w3.org/2000/svg">
<path d="M49.0916 5.24189C49.0916 7.47783 52.6754 9.29042 50.1816 9.29042C47.6877 9.29042 45.666 7.47783 45.666 5.24189C45.666 3.00595 47.6877 1.19336 50.1816 1.19336C52.6754 1.19336 49.0916 3.00595 49.0916 5.24189Z" fill="#FE964A"/>
<path d="M84.5037 3.28906L85.3965 5.47262L86.8411 7.33759L84.5037 7.01902L82.1663 7.33759L83.6109 5.47262L84.5037 3.28906Z" fill="#FE964A"/>
<path d="M18.2136 42.7114C18.2136 42.7114 23.9664 39.8461 25.2714 41.3479C25.9884 42.173 26.5298 43.1723 25.8877 43.9842C25.3927 44.61 24.6781 44.6898 23.8408 44.5428C22.0677 44.2314 22.0946 41.7691 22.8063 40.2441C23.7891 38.1386 29.0057 39.3813 29.0057 39.3813" stroke="#8C167E" stroke-width="1.07961"/>
<circle cx="122.498" cy="39.8422" r="3.14886" fill="#FFEDEC"/>
<path d="M29.812 72.8635L30.26 68.9992L33.3834 70.9793L33.7394 67.7375L36.5884 69.7001L37.4756 66.1955" stroke="#2F78EE" stroke-width="0.899673"/>
<path d="M103.275 11.8121C103.275 11.8121 102.837 9.21045 104.094 8.6919C105.15 8.25627 106.065 10.1828 106.933 9.48433C107.812 8.77686 105.618 7.65606 106.332 6.80987C107.084 5.9193 109.499 6.80987 109.499 6.80987" stroke="#2F78EE" stroke-width="1.07961"/>
<path d="M17.4525 7.91182L29.0169 13.669L26.1266 17.6106L17.4525 7.91182Z" fill="#2F78EE"/>
<circle cx="119.892" cy="50.5565" r="1.34951" fill="#FFEDEC"/>
<path d="M106.923 68.3203C108.406 68.4696 109.848 66.2134 109.681 67.8676C109.515 69.5218 108.177 70.7418 106.694 70.5926C105.211 70.4433 104.144 68.9813 104.31 67.327C104.477 65.6728 105.44 68.171 106.923 68.3203Z" fill="#2F78EE"/>
<path d="M111.737 20.9473L113.225 24.5865L115.632 27.6948L111.737 27.1639L107.841 27.6948L110.249 24.5865L111.737 20.9473Z" fill="#8C167E"/>
<path d="M66.915 12.7727C69.4816 11.2426 72.6805 11.2426 75.2471 12.7727L79.1856 15.1207C80.1138 15.6741 81.1431 16.037 82.2132 16.1882L86.7103 16.8238C89.7413 17.2521 92.2754 19.3456 93.2679 22.2414L94.609 26.1539C94.9747 27.2207 95.5581 28.1999 96.3224 29.0292L99.0809 32.0226C101.224 34.3487 101.825 37.7063 100.622 40.6314L99.1275 44.2633C98.6918 45.3221 98.4845 46.461 98.5192 47.6055L98.6391 51.5576C98.7337 54.6786 97.0339 57.5783 94.2644 59.0203L90.4375 61.0128C89.4598 61.5219 88.5958 62.2243 87.8978 63.0774L85.1214 66.4712C83.2163 68.7998 80.1817 69.8869 77.2314 69.2978L72.6742 68.3878C71.6225 68.1778 70.5396 68.1778 69.4879 68.3878L64.9307 69.2978C61.9804 69.8869 58.9458 68.7998 57.0407 66.4712L54.2643 63.0774C53.5663 62.2243 52.7023 61.5219 51.7246 61.0128L47.8977 59.0203C45.1283 57.5783 43.4284 54.6786 43.523 51.5576L43.6429 47.6055C43.6776 46.461 43.4703 45.3221 43.0347 44.2633L41.5403 40.6314C40.3368 37.7063 40.9378 34.3487 43.0813 32.0226L45.8398 29.0292C46.604 28.1999 47.1874 27.2207 47.5531 26.1539L48.8942 22.2414C49.8867 19.3456 52.4208 17.2521 55.4518 16.8238L59.9489 16.1882C61.019 16.037 62.0483 15.6741 62.9765 15.1207L66.915 12.7727Z" fill="url(#paint0_linear_527_2256)"/>
<path d="M61.0811 40.8206L67.7577 47.3521L81.1111 34.2891" stroke="white" stroke-width="5.22523" stroke-linecap="round" stroke-linejoin="round"/>
<defs>
<linearGradient id="paint0_linear_527_2256" x1="91.42" y1="53.6789" x2="71.0811" y2="37.4077" gradientUnits="userSpaceOnUse">
<stop stop-color="#A20BA2"/>
<stop offset="1" stop-color="#F711F7"/>
</linearGradient>
</defs>
</svg>
