<svg width="22" height="12" viewBox="0 0 22 12" fill="none" xmlns="http://www.w3.org/2000/svg">
<path d="M4.33333 4.33314L8.77778 2.11105L12.6667 5.44418L11 7.66628M1 10.7217C1.34588 10.8936 1.72499 10.9884 2.11111 10.9994C2.54388 11.0085 2.97236 10.9121 3.35953 10.7185C3.7467 10.5249 4.08092 10.24 4.33333 9.88837C4.58575 9.53673 4.91997 9.25182 5.30714 9.05825C5.69431 8.86468 6.12278 8.76826 6.55556 8.77732C6.98833 8.76826 7.4168 8.86468 7.80397 9.05825C8.19114 9.25182 8.52537 9.53673 8.77778 9.88837C9.03019 10.24 9.36441 10.5249 9.75158 10.7185C10.1388 10.9121 10.5672 11.0085 11 10.9994C11.4328 11.0085 11.8612 10.9121 12.2484 10.7185C12.6356 10.5249 12.9698 10.24 13.2222 9.88837C13.4746 9.53673 13.8089 9.25182 14.196 9.05825C14.5832 8.86468 15.0117 8.76826 15.4444 8.77732C15.8772 8.76826 16.3057 8.86468 16.6929 9.05825C17.08 9.25182 17.4143 9.53673 17.6667 9.88837C17.9191 10.24 18.2533 10.5249 18.6405 10.7185C19.0276 10.9121 19.4561 11.0085 19.8889 10.9994C20.275 10.9884 20.6541 10.8936 21 10.7217M14.3333 2.11105C14.3333 2.40571 14.4504 2.68831 14.6588 2.89667C14.8671 3.10504 15.1498 3.22209 15.4444 3.22209C15.7391 3.22209 16.0217 3.10504 16.2301 2.89667C16.4385 2.68831 16.5556 2.40571 16.5556 2.11105C16.5556 1.81638 16.4385 1.53378 16.2301 1.32542C16.0217 1.11706 15.7391 1 15.4444 1C15.1498 1 14.8671 1.11706 14.6588 1.32542C14.4504 1.53378 14.3333 1.81638 14.3333 2.11105Z" stroke="#333333" stroke-width="2" stroke-linecap="round" stroke-linejoin="round"/>
</svg>
