<svg width="14" height="15" viewBox="0 0 14 15" fill="none" xmlns="http://www.w3.org/2000/svg">
<path d="M6.08868 1.2806C6.65013 0.945887 7.34987 0.945887 7.91132 1.2806L8.77286 1.79422C8.97592 1.91528 9.20107 1.99467 9.43515 2.02775L10.4189 2.16677C11.0819 2.26047 11.6363 2.71842 11.8534 3.35188L12.1467 4.20774C12.2267 4.44111 12.3544 4.6553 12.5215 4.83671L13.125 5.49152C13.5938 6.00034 13.7253 6.73482 13.462 7.3747L13.1352 8.16916C13.0398 8.40078 12.9945 8.64992 13.0021 8.90027L13.0283 9.76481C13.049 10.4475 12.6772 11.0818 12.0714 11.3973L11.2342 11.8331C11.0204 11.9445 10.8313 12.0981 10.6787 12.2848L10.0713 13.0271C9.6546 13.5365 8.99078 13.7743 8.3454 13.6455L7.34849 13.4464C7.11843 13.4005 6.88157 13.4005 6.65151 13.4464L5.6546 13.6455C5.00922 13.7743 4.34541 13.5365 3.92868 13.0271L3.32133 12.2848C3.16865 12.0981 2.97964 11.9445 2.76578 11.8331L1.92864 11.3973C1.32282 11.0818 0.950979 10.4475 0.971682 9.76481L0.997898 8.90027C1.00549 8.64992 0.960152 8.40078 0.864849 8.16916L0.537965 7.3747C0.274686 6.73482 0.406152 6.00034 0.875043 5.49152L1.47847 4.83671C1.64564 4.6553 1.77327 4.44111 1.85326 4.20774L2.14662 3.35188C2.36374 2.71842 2.91807 2.26047 3.58111 2.16677L4.56484 2.02775C4.79893 1.99467 5.02408 1.91528 5.22714 1.79422L6.08868 1.2806Z" fill="black"/>
<path d="M4.8125 7.41608L6.27302 8.84485L9.19407 5.9873" stroke="white" stroke-width="1.14302" stroke-linecap="round" stroke-linejoin="round"/>
</svg>
