<svg width="16" height="16" viewBox="0 0 16 16" fill="none" xmlns="http://www.w3.org/2000/svg">
<path d="M6.9585 1.16339C7.60015 0.78086 8.39985 0.78086 9.0415 1.16339L10.0261 1.75039C10.2582 1.88874 10.5155 1.97947 10.783 2.01728L11.9073 2.17615C12.6651 2.28324 13.2986 2.80662 13.5467 3.53056L13.882 4.5087C13.9734 4.7754 14.1193 5.02019 14.3103 5.22751L15 5.97587C15.5358 6.55738 15.6861 7.39678 15.3852 8.12807L15.0116 9.03603C14.9027 9.30074 14.8509 9.58547 14.8595 9.87158L14.8895 10.8596C14.9132 11.6399 14.4882 12.3648 13.7958 12.7253L12.8391 13.2234C12.5947 13.3507 12.3787 13.5263 12.2042 13.7396L11.5101 14.588C11.0338 15.1702 10.2752 15.442 9.53759 15.2947L8.39828 15.0672C8.13535 15.0147 7.86465 15.0147 7.60172 15.0672L6.46241 15.2947C5.72483 15.442 4.96618 15.1702 4.48992 14.588L3.7958 13.7396C3.62132 13.5263 3.40531 13.3507 3.16089 13.2234L2.20416 12.7253C1.5118 12.3648 1.08683 11.6399 1.11049 10.8596L1.14046 9.87158C1.14913 9.58547 1.09732 9.30074 0.988399 9.03603L0.614817 8.12807C0.313926 7.39678 0.464174 6.55738 1.00005 5.97587L1.68967 5.22751C1.88073 5.02019 2.0266 4.7754 2.11801 4.5087L2.45328 3.53056C2.70142 2.80662 3.33493 2.28324 4.0927 2.17615L5.21697 2.01728C5.48449 1.97947 5.7418 1.88874 5.97387 1.75039L6.9585 1.16339Z" fill="white"/>
<path d="M5.5 8.17536L7.16917 9.80825L10.5075 6.54248" stroke="black" stroke-width="1.30631" stroke-linecap="round" stroke-linejoin="round"/>
</svg>
