<svg width="311" height="310" viewBox="0 0 311 310" fill="none" xmlns="http://www.w3.org/2000/svg">
<path d="M155.5 0C124.745 0 94.6808 9.07788 69.109 26.0858C43.5373 43.0936 23.6061 67.2674 11.8368 95.5506C0.0673697 123.833 -3.01203 154.955 2.98795 184.98C8.98797 215.006 23.798 242.585 45.5449 264.23C67.292 285.878 94.9998 300.62 125.164 306.594C155.328 312.566 186.593 309.5 215.008 297.787C243.422 286.07 267.706 266.231 284.794 240.777C301.88 215.323 311 185.397 311 154.784C311 113.732 294.618 74.3624 265.455 45.3351C236.293 16.3075 196.741 0 155.5 0ZM251.02 177.404C251.02 180.5 236.981 180.942 236.981 184.038C236.981 187.133 250.866 191.335 250.866 195.603C250.866 200.82 222.253 201.594 222.253 206.813C222.253 212.386 243.956 210.66 243.956 216.697C243.956 223.817 189.444 220.5 189.444 227.908C189.444 230.737 196.419 231.91 205.15 232.839C209.948 233.369 208.902 235.713 206.172 237.262C190.91 246.53 173.378 251.434 155.5 251.434C137.622 251.434 120.09 246.53 104.829 237.262C102.119 235.603 101.053 233.26 105.851 232.839C114.581 231.91 121.579 230.628 121.579 227.908C121.579 220.5 67.0426 223.817 67.0426 216.697C67.0426 210.66 88.7685 212.275 88.7685 206.813C88.7685 201.594 59.9788 204.939 59.9788 199.721C59.9788 195.453 74.0407 187.2 74.0407 184.038C74.0407 180.876 59.9788 180.522 59.9788 177.404C59.9788 174.286 70.242 172.274 70.242 170.063C70.242 165.884 58.3126 173.49 58.3126 154.784C58.3126 129.127 68.5524 104.52 86.7785 86.3783C105.005 68.236 129.724 58.0438 155.5 58.0438C181.276 58.0438 205.996 68.236 224.222 86.3783C242.448 104.52 252.687 129.127 252.687 154.784C252.687 173.49 240.759 165.84 240.759 170.063C240.759 172.274 251.02 174.065 251.02 177.404Z" fill="#A20BA2"/>
</svg>
