<svg width="16" height="19" viewBox="0 0 16 19" fill="none" xmlns="http://www.w3.org/2000/svg">
<path d="M12.6667 4.06328L12.6744 4.05472M15 3.27772V15.7222C15 16.1347 14.8361 16.5304 14.5444 16.8221C14.2527 17.1138 13.857 17.2777 13.4444 17.2777H2.55556C2.143 17.2777 1.74733 17.1138 1.45561 16.8221C1.16389 16.5304 1 16.1347 1 15.7222V3.27772C1 2.86516 1.16389 2.4695 1.45561 2.17778C1.74733 1.88606 2.143 1.72217 2.55556 1.72217H13.4444C13.857 1.72217 14.2527 1.88606 14.5444 2.17778C14.8361 2.4695 15 2.86516 15 3.27772Z" stroke="#333333" stroke-width="1.5" stroke-linecap="round" stroke-linejoin="round"/>
<path d="M7.99918 14.9442C9.23686 14.9442 10.4238 14.4525 11.299 13.5773C12.1742 12.7022 12.6658 11.5152 12.6658 10.2775C12.6658 9.03983 12.1742 7.85284 11.299 6.97767C10.4238 6.10251 9.23686 5.61084 7.99918 5.61084C6.76151 5.61084 5.57452 6.10251 4.69935 6.97767C3.82418 7.85284 3.33252 9.03983 3.33252 10.2775C3.33252 11.5152 3.82418 12.7022 4.69935 13.5773C5.57452 14.4525 6.76151 14.9442 7.99918 14.9442Z" stroke="#333333" stroke-width="1.5" stroke-linecap="round" stroke-linejoin="round"/>
<path d="M8.00081 12.6102C7.38197 12.6102 6.78848 12.3644 6.3509 11.9268C5.91331 11.4892 5.66748 10.8957 5.66748 10.2769" stroke="#333333" stroke-width="1.5" stroke-linecap="round" stroke-linejoin="round"/>
</svg>
