<svg width="25" height="20" viewBox="0 0 25 20" fill="none" xmlns="http://www.w3.org/2000/svg">
<g clip-path="url(#clip0_241_712)">
<path fill-rule="evenodd" clip-rule="evenodd" d="M19.4093 3.59759C17.7015 1.69463 15.2384 0.5 12.5 0.5C9.76162 0.5 7.29854 1.69463 5.59072 3.59759H19.4093ZM5.59082 16.3244C7.29863 18.2274 9.76172 19.422 12.5001 19.422C15.2385 19.422 17.7016 18.2274 19.4094 16.3244H5.59082ZM4.14687 4.40203C1.85664 4.40203 0 6.28342 0 8.60429V11.3177C0 13.6385 1.85664 15.5199 4.14687 15.5199H20.8531C23.1434 15.5199 25 13.6385 25 11.3177V8.60429C25 6.28342 23.1434 4.40203 20.8531 4.40203H4.14687ZM24.5734 8.5563C24.5734 6.50064 22.929 4.83428 20.9005 4.83428H16.7535C14.725 4.83428 13.0806 6.50064 13.0806 8.5562V11.3777C13.0806 13.4334 11.4361 15.0997 9.40762 15.0997H20.9004C22.9289 15.0997 24.5733 13.4333 24.5733 11.3777L24.5734 8.5563ZM10.166 8.80824V12.7824H11.3508V8.80824H10.166ZM10.0475 7.55365C10.0475 7.74312 10.1217 7.92482 10.2539 8.05879C10.3862 8.19277 10.5655 8.26803 10.7524 8.26803C10.9394 8.26803 11.1187 8.19277 11.2509 8.05879C11.3831 7.92482 11.4574 7.74312 11.4574 7.55365C11.4574 7.36419 11.3831 7.18248 11.2509 7.04851C11.1187 6.91454 10.9394 6.83927 10.7524 6.83927C10.5655 6.83927 10.3862 6.91454 10.2539 7.04851C10.1217 7.18248 10.0475 7.36419 10.0475 7.55365ZM2.14453 6.98345L3.67295 12.7824H4.65635L5.80576 8.77232L6.95498 12.7825H7.97393L9.47871 6.98345H8.3293L7.45264 10.8015L6.3626 6.98345H5.30811L4.21797 10.7054L3.38867 6.98345H2.14453ZM14.9645 6.98345V12.7824H16.2203V10.5133H19.0641V9.33668H16.2203V8.16007H19.2535V6.98345H14.9645ZM20.1066 8.80834V12.7825H21.2915V8.80834H20.1066ZM20 7.54168C20 7.73114 20.0743 7.91285 20.2065 8.04682C20.3387 8.18079 20.518 8.25606 20.705 8.25606C20.892 8.25606 21.0713 8.18079 21.2035 8.04682C21.3357 7.91285 21.41 7.73114 21.41 7.54168C21.41 7.35221 21.3357 7.17051 21.2035 7.03653C21.0713 6.90256 20.892 6.8273 20.705 6.8273C20.518 6.8273 20.3387 6.90256 20.2065 7.03653C20.0743 7.17051 20 7.35221 20 7.54168Z" fill="#333333"/>
</g>
<defs>
<clipPath id="clip0_241_712">
<rect width="25" height="19" fill="white" transform="translate(0 0.5)"/>
</clipPath>
</defs>
</svg>
