<svg width="13" height="17" viewBox="0 0 13 17" fill="none" xmlns="http://www.w3.org/2000/svg">
<path d="M4.34311 1.73663H9.95819C10.0259 1.7364 10.0925 1.75266 10.1521 1.78394C10.2118 1.81522 10.2624 1.86052 10.2996 1.91575C10.3368 1.97099 10.3592 2.0344 10.365 2.10025C10.3707 2.1661 10.3595 2.23231 10.3325 2.29288L8.13558 7.30065H11.8389C11.8699 7.30096 11.9002 7.30991 11.9262 7.32646C11.9522 7.34301 11.9727 7.36646 11.9855 7.39405C11.9983 7.42165 12.0028 7.45223 11.9983 7.48221C11.9939 7.51219 11.9808 7.54031 11.9606 7.56326L4.4082 15.6694C4.38759 15.6995 4.35662 15.7213 4.3209 15.731C4.28519 15.7407 4.2471 15.7376 4.21354 15.7222C4.17998 15.7069 4.15318 15.6802 4.138 15.6472C4.12281 15.6142 4.12025 15.5769 4.13078 15.5422L4.88013 9.68457H1.41312C1.34579 9.68546 1.27928 9.67005 1.21954 9.6397C1.1598 9.60936 1.10868 9.56503 1.07076 9.51069C1.03284 9.45634 1.0093 9.39366 1.00225 9.32826C0.995187 9.26286 1.00483 9.19677 1.03031 9.13589L3.95952 1.9826C3.99057 1.90852 4.04381 1.84534 4.11225 1.80132C4.1807 1.75729 4.26116 1.73524 4.34311 1.73663Z" stroke="#505050" stroke-width="1.5" stroke-linecap="round" stroke-linejoin="round"/>
</svg>
